<svg version="1.1" xmlns="http://www.w3.org/2000/svg" xmlns:xlink="http://www.w3.org/1999/xlink" x="0px" y="0px"
    viewBox="0 0 2151.31 2109.14" style="enable-background:new 0 0 2151.31 2109.14;" xml:space="preserve">
    <g>
    </g>
    <g>
        <g>
            <g>
                <defs>
                    <polygon points="4230.7,1730.63 3588.72,1730.63 2978,1730.63 
					2902.89,1730.63 2687.27,1730.63 2790.99,1550.98 2826.38,1489.68 3138,949.95 3588.72,169.26 4039.45,949.95 4368.86,1520.51 
					4403.37,1580.27 4490.18,1730.63 4305.81,1730.63 				" />
                </defs>
                <clipPath>
                    <use xlink:href="#SVGID_00000028290050610877230440000018225645617521019580_"
                        style="overflow:visible;" />
                </clipPath>
            </g>
        </g>
        <g>
            <path d="M1908.77,1527.45c46.29-110.17,69.79-227.11,69.79-347.63c0-184.65-55.62-362.04-160.84-512.98
			c-102.81-147.48-245.41-259.71-412.36-324.53l-20.59,53.03c326.16,126.63,536.9,434.56,536.9,784.48
			c0,99.72-17.48,195.43-49.48,284.27l-307.41-532.44l-500-866.03l-500,866.03l-287.68,498.27
			c-24.66-79.04-37.95-163.04-37.95-250.09c0-342.14,204.4-647.51,520.74-777.99l-21.69-52.6C575.7,416.26,437.28,528.7,337.9,674.4
			c-101.82,149.27-155.64,324.05-155.64,505.42c0,108.89,19.22,214.84,57.06,315.54L64.78,1797.67h363.78
			c5.51,5.81,11.08,11.56,16.76,17.24c82.48,82.48,178.52,147.23,285.48,192.47c110.75,46.84,228.37,70.59,349.61,70.59
			s238.86-23.75,349.61-70.59c106.95-45.24,203-109.99,285.48-192.47c5.68-5.68,11.25-11.43,16.76-17.24h332.53L1908.77,1527.45z
			 M1080.41,2021.08c-219.86,0-420.26-84.82-570.29-223.41h554.67h585.92C1500.67,1936.26,1300.27,2021.08,1080.41,2021.08z
			 M1706.76,1740.78h-641.98H454.06h-75.11H163.33l103.72-179.65l35.4-61.31l311.61-539.73l450.73-780.68l450.73,780.68
			l329.41,570.56l34.5,59.76l86.81,150.37h-184.37H1706.76z" />
            <path d="M1908.77,1527.45c46.29-110.17,69.79-227.11,69.79-347.63c0-184.65-55.62-362.04-160.84-512.98
			c-102.81-147.48-245.41-259.71-412.36-324.53l-20.59,53.03c326.16,126.63,536.9,434.56,536.9,784.48
			c0,99.72-17.48,195.43-49.48,284.27l-307.41-532.44l-500-866.03l-500,866.03l-287.68,498.27
			c-24.66-79.04-37.95-163.04-37.95-250.09c0-342.14,204.4-647.51,520.74-777.99l-21.69-52.6C575.7,416.26,437.28,528.7,337.9,674.4
			c-101.82,149.27-155.64,324.05-155.64,505.42c0,108.89,19.22,214.84,57.06,315.54L64.78,1797.67h363.78
			c5.51,5.81,11.08,11.56,16.76,17.24c82.48,82.48,178.52,147.23,285.48,192.47c110.75,46.84,228.37,70.59,349.61,70.59
			s238.86-23.75,349.61-70.59c106.95-45.24,203-109.99,285.48-192.47c5.68-5.68,11.25-11.43,16.76-17.24h332.53L1908.77,1527.45z
			 M1080.41,2021.08c-219.86,0-420.26-84.82-570.29-223.41h554.67h585.92C1500.67,1936.26,1300.27,2021.08,1080.41,2021.08z
			 M1706.76,1740.78h-641.98H454.06h-75.11H163.33l103.72-179.65l35.4-61.31l311.61-539.73l450.73-780.68l450.73,780.68
			l329.41,570.56l34.5,59.76l86.81,150.37h-184.37H1706.76z" />
            <g>
                <defs>
                    <polygon id="SVGID_00000179610767605372270750000005680161113692197051_" points="1707.27,1740.78 1065.29,1740.78 
					454.57,1740.78 379.46,1740.78 163.84,1740.78 267.56,1561.13 302.96,1499.82 614.57,960.09 1065.29,179.41 1516.02,960.09 
					1845.44,1530.65 1879.94,1590.41 1966.75,1740.78 1782.38,1740.78 				" />
                </defs>
                <clipPath id="SVGID_00000154412407678028174080000012253525457034931343_">
                    <use xlink:href="#SVGID_00000179610767605372270750000005680161113692197051_"
                        style="overflow:visible;" />
                </clipPath>
                <g style="clip-path:url(#SVGID_00000154412407678028174080000012253525457034931343_);">
                    <path
                        d="M1597.47,1316.62c5.44,1.06,10.83,2.52,16.41,4.57c5.7,1.69,11.32,3.91,16.71,6.6c5.2,2.58,10.42,5.72,15.48,9.33
					c4.54,2.88,9.28,6.47,13.69,10.41c8.9,7.93,16.57,17.46,22.2,27.53c5.2,9.09,8.4,18.61,9.75,28.31
					c6.07-0.78,12.08-1.78,17.88-3.23c7.75-2.48,15.67-5.78,22.97-9.63c3.97-2.14,7.06-3.85,9.91-5.92
					c3.08-2.28,6.14-4.77,8.99-7.35c5.58-5.04,10.45-10.47,14.47-16.12c7.41-10.87,12.02-23.57,13.24-36.59
					c1.14-12.32-0.88-25.02-5.98-37.75c-12.11-29.68-35.21-49.46-47.9-58.61c-4.9-3.69-9.54-6.73-13.97-9.15
					c-2.21-1.21-4.4-2.29-6.59-3.23c-1.01-0.45-1.92-0.87-2.82-1.3c-1.42-0.67-2.84-1.34-4.24-1.87c-4.47-1.79-8.47-2.82-12.45-3.29
					l-0.52-0.06l-0.51-0.12c-1.18-0.26-2.32-0.37-3.47-0.53c-0.09,9.25-1.25,18.04-3.53,26.19c-3.1,10.77-8.25,20.35-15.32,28.54
					c-3.52,4.05-7.51,7.75-11.89,10.99c-4.79,3.15-9.59,5.53-14.72,7.4c-5.04,1.83-10.37,3.12-15.86,3.84l-0.74,0.07
					c-4.79,0.23-9.79-0.07-14.88-0.86c-0.37,5.86-1.01,11.61-2.15,17.21C1600.6,1307.05,1599.13,1311.89,1597.47,1316.62z" />
                    <path d="M1815.17,1546.52c-2.48-8.88-4.92-18.41-6.64-27.99l-102.82,30.77l-64.21,18.83c2.3,12.07,5.69,25.62,10.3,40.84
					c11.21,37.01,50.3,58.06,87.14,46.89c0.62-0.19,1.24-0.3,1.86-0.35c-0.15-19.12,4.43-38.07,13.64-55.4
					C1767.7,1575.19,1789.1,1556.47,1815.17,1546.52z" />
                    <path d="M1643.52,1141c-1.95-3.19-3.55-5.42-5.04-7.08c-1.2-1.33-2.32-2.27-3.36-2.88c-4.98-0.38-9.95-0.86-14.9-1.52
					c-3.44-0.86-6.9-1.64-10.4-2.34l-5.27-1.01l-5.08-1.69c-3.39-1.11-6.86-2.04-10.34-2.99c-3.29-1.44-6.62-2.81-9.99-4.1
					l-5.12-1.89l-3.64-1.95c2.77,10.9,0.41,19.22-1.9,27.26c-0.38,1.33-0.77,2.69-1.15,4.09c-2.4,7.72-5.25,14.9-8.49,21.62
					c6.13,4.59,12.4,10.29,17.55,18.32c3.69,4.94,6.7,9.79,9.21,14.79c2.05,3.87,3.84,8.29,5.57,12.57c0.59,1.45,1.17,2.9,1.76,4.3
					c4.85,12.45,8.27,26.3,9.98,40.27c0.41,3.32,0.66,6.55,0.87,9.76c0.46,0.03,0.92,0.05,1.39,0.15c4.25,0.84,8.37,1.06,12.26,0.91
					c4.05-0.56,7.97-1.51,11.66-2.85c3.83-1.39,7.38-3.15,10.56-5.23c2.88-2.16,5.9-4.95,8.54-7.99c5.34-6.19,9.24-13.47,11.6-21.64
					c2.38-8.48,3.29-17.98,2.71-28.18c-0.54-9.23-2.23-18.79-5.04-28.39c-2.52-8.77-5.65-16.99-9.04-23.84
					C1646.77,1146.19,1645.12,1143.34,1643.52,1141z" />
                    <path d="M1282.88,1084.74c0.76,0.24,1.51,0.55,2.21,1.01c15.62,10.14,34.28,13.58,52.56,9.66
					c18.28-3.92,33.97-14.74,44.18-30.46c10.22-15.72,13.73-34.45,9.88-52.75c-0.46-2.19-1.03-4.33-1.68-6.44
					c-43.96-27.33-88.02-54.5-131.62-82.4c-2.72-1.74-5.44-3.51-8.16-5.26c0.67,14.52-2.13,29.31-8.87,43
					C1279.83,990.24,1295.46,1039.73,1282.88,1084.74z" />
                    <path d="M1384.97,1815.92c-2.42-5.12-4.5-10.47-6.19-16.05c-1.5-4.97-2.55-9.99-3.38-15.03c-12.34,3.47-25.04,4.27-37.37,2.31
					c-9.63-1.53-19.04-4.69-27.88-9.46c-19.02-10.23-33.29-26.75-40.79-46.84c-21.05,8.45-38.36,23.9-49.29,44.26
					c-12.44,23.19-15.12,49.76-7.54,74.83c14.78,49.08,64.54,78.12,113.62,68c-4.33-20.31-1.47-41.28,8.38-59.8
					C1345.32,1837.86,1363.21,1822.96,1384.97,1815.92z" />
                    <path d="M1201.23,1871.01c-2.36-5.05-4.39-10.34-6.04-15.83c-1.66-5.49-2.76-11.05-3.6-16.62c-10.77,3.26-21.89,4.22-32.39,2.55
					c-0.14-0.02-0.28-0.04-0.42-0.07l-0.61-0.12c-11.55-2.74-22.08-8.17-31.32-16.14c-13.7-11.75-23.64-28.83-28.95-49.18
					c-7.75,1.91-15.26,5.25-22.41,10.02c-9.75,5.75-18.27,13.34-25.77,22.83c-3.39,4.24-6.88,9.43-10.41,15.47
					c-3.14,5.33-5.86,10.98-8.11,16.85c-4.81,12.58-7.25,25.53-7.25,38.47c0,13.53,2.72,26.31,8.08,38
					c2.66,5.81,5.99,11.37,9.91,16.54c3.58,4.71,7.85,9.03,13.4,13.58c10.29,8.34,22.95,14.84,36.56,18.77
					c11.16,2.64,23.5,3.54,35.91,2.76c-1.2-20.19,5.01-40.82,17.93-58.84c6.91-9.58,15.26-17.65,24.85-24.01
					C1179.67,1879.27,1190.1,1874.17,1201.23,1871.01z" />
                    <path d="M909.57,1970.06c2-9.05,5.5-17.76,10.57-25.96c5.62-9.09,13.09-17.39,22.85-25.36c9.35-7.46,19.6-13.05,30.57-16.69
					c5.15-1.79,10.43-2.82,15.54-3.81l1.16-0.23c5.6-1.08,11.31-1.59,17.01-1.66c-0.85-5.6-1.43-11.28-1.43-17.11
					c0-5.17,0.45-10.34,1.11-15.49c-3.43-0.01-6.83-0.2-10.17-0.73c-1.47-0.23-2.93-0.52-4.37-0.86
					c-5.97-1.34-11.33-4.27-15.78-6.95c-9.53-5.95-17.47-14.01-23.7-24.03c-5.86-9.16-10.19-21.04-12.44-34.26
					c-1.13-6.65-1.68-13.53-1.7-20.56c-21.07-1.39-41.17,4.61-59.8,18.04c-21.25,14.59-37.36,36.72-44.38,60.83
					c-7.5,25.71-3.46,52.11,11.37,74.33C860.5,1950.25,883.83,1964.98,909.57,1970.06z" />
                    <path d="M1447.4,1658c-2.68-9.02-5.65-19.43-8.48-30.48l-34.57,10.14l-130.62,37.77c3.61,19.21,8.42,36.19,11.01,44.77
					c5.44,17.94,17.49,32.7,33.97,41.55c16.45,8.85,35.34,10.74,53.17,5.34c0.62-0.19,1.24-0.3,1.86-0.35
					c-0.15-19.12,4.43-38.07,13.64-55.39C1400.53,1686.65,1421.66,1668.02,1447.4,1658z" />
                    <path
                        d="M1630.98,1602.39c-2.34-8.24-4.96-18.31-7.05-29.12l-167.63,49.16c4.12,16.16,8.6,31,11.93,41.97
					c11.27,37.19,50.36,58.23,87.19,47.07c0.64-0.19,1.29-0.3,1.93-0.35C1557.08,1663.93,1585.72,1620.03,1630.98,1602.39z" />
                    <path
                        d="M830.72,1819.61c9.53-15.7,22.42-29.4,37.85-40.01c21.65-15.62,46.26-22.89,71.33-21.28c0.04-0.34,0.05-0.67,0.1-1.01
					c0.49-3.74,0.98-10.1,1.49-16.85c0.47-6.21,0.94-11.99,1.45-17.34c-25.37-3.33-50.49-8.37-75.11-15.08
					c-14.27-3.77-28.32-8.2-42.15-13.2c-12.91,8.95-23.94,22.46-30.54,37.75c-7.64,17.72-8.38,36.5-2.09,52.89
					c2.74,7.53,7.32,14.21,14.09,20.58c7.13,6.46,14.66,10.89,22.27,13.03C829.86,1819.22,830.29,1819.41,830.72,1819.61z" />
                    <path
                        d="M1903.58,1770l159.34-48.9c-2.11-1.89-4.12-3.94-5.78-6.21c-0.49,0.04-1.14,0.05-1.93,0.04
					c-0.8-0.01-1.83-0.02-3.91,0.26c-7.93,0.74-15.6,0.68-23.17-0.14c-1.95-0.21-3.9-0.47-5.83-0.78
					c-12.81-2.04-25.11-6.2-36.64-12.41c-16.75-9.01-30.72-21.73-41.12-37.06c-0.67,0.42-1.39,0.8-2.18,1.04
					c-17.84,5.4-32.49,17.46-41.27,33.96c-8.78,16.5-10.63,35.47-5.19,53.41C1897.73,1759.28,1900.38,1764.86,1903.58,1770z" />
                    <path
                        d="M1984.83,1497.15c3.04-1.91,10.48-4.78,14.6-6.3l3.01-1.1c2.37-0.88,4.91-1.81,7.63-2.57
					c-0.31-1.65-0.74-3.28-0.96-4.93c-0.87-6.48-1.01-14.84-0.48-23.47l-2.07,0.49l-180.32,53.95c1.86,11.24,5.08,24.13,9.34,38.83
					c5.46,18.83,17.72,34.15,34.55,43.15c16.19,8.65,34.75,10.37,52.27,4.82c0.63-0.2,1.27-0.32,1.91-0.38
					c-0.1-19.04,4.48-37.91,13.65-55.16c7.07-13.3,16.49-24.92,28-34.54C1971.81,1505.08,1978.15,1500.77,1984.83,1497.15z" />
                    <path d="M1720.61,1826.53l63.13-19.75l102.07-31.32c-1.25-2.27-2.44-4.58-3.5-6.99c-14.42,3.27-29.11,3.77-43.44,1.49
					c-12.68-2.02-25.08-6.18-36.74-12.45c-16.75-9.01-30.72-21.73-41.12-37.07c-0.67,0.42-1.39,0.8-2.19,1.04
					c-36.83,11.16-57.67,50.36-46.45,87.37C1714.32,1815.26,1717.15,1821.15,1720.61,1826.53z" />
                    <path d="M1752.14,1704.65c-2.43-5.16-4.62-10.46-6.3-16.02c-1.51-4.97-2.55-9.99-3.38-15.03c-12.51,3.51-25.19,4.19-37.3,2.27
					c-30.51-4.85-57.37-25.71-68.81-56.2c-46.3,18.75-71.54,70.38-56.7,119.32c14.85,49.01,64.59,77.94,113.57,67.73
					C1683.92,1762.93,1709.09,1718.52,1752.14,1704.65z" />
                    <path d="M658.07,1872.51c3.24,5.28,7.53,10.83,12.61,16.26c9.14,9.58,18.82,16.97,28.82,22.09
					c9.77-18.05,26.07-32.24,46.67-40.3c12.42-4.58,23.37-7.02,33.66-7.53c10.23-0.7,21.44,0.68,33.99,4.13
					c0.73-5.67,1.75-11.34,3.4-16.99c1.43-4.91,3.26-9.67,5.27-14.36c-9.61-3.07-18.91-8.53-27.66-16.45
					c-9-8.47-15.09-17.44-18.76-27.54c-7.26-18.92-7.08-40.3,0.28-60.73c-8.64-2.6-16.11-3.77-23.44-3.69
					c-5.22,0-10.91,0.58-17.01,1.72c-5.83,0.88-11.46,2.26-17.05,4.17c-24.47,8.39-46.2,25.34-59.58,46.47
					c-14.36,22.67-17.73,49-9.49,74.11C651.86,1860.21,654.65,1866.47,658.07,1872.51z" />
                    <path
                        d="M931.16,2011.41c17.26,1.37,34.55,2.26,51.85,2.57c51.74,1.16,103.47-3.33,154.33-12.18
					c-2.63-4.72-4.78-9.71-6.35-14.96c-11.4,0.88-22.83,0.5-33.77-1.24c-3.36-0.54-6.68-1.19-9.93-1.97
					c-16.33-4.7-31.19-12.36-43.38-22.23c-6.62-5.43-11.96-10.86-16.38-16.66c-4.74-6.24-8.75-12.95-11.96-19.95
					c-1.62-3.54-3.04-7.16-4.26-10.85c-0.89,0.29-1.82,0.48-2.81,0.48c-4.96-0.02-9.94,0.44-14.79,1.38l-1.15,0.22
					c-4.69,0.92-9.13,1.78-13.19,3.19c-9.05,3-17.43,7.57-25.01,13.63c-8.09,6.61-14.28,13.44-18.83,20.79
					c-5.06,8.18-8.2,16.94-9.34,26.05c-1.17,9.35-0.13,18.55,3.07,27.34C929.82,2008.52,930.51,2009.96,931.16,2011.41z" />
                    <path d="M1751.6,1103.84c-1.86,0.99-3.65,2.08-5.46,3.15c0.95,0.49,1.88,0.92,2.86,1.46c1.49,0.74,3.3,1.68,5.15,2.76
					c8.8,5.14,24.53,15.7,39.16,32.45c7.43-4.32,15.57-6.69,22.98-8.83c5.72-1.38,11.62-2.16,18.47-2.5
					c5.47-0.59,11.89-0.75,18.58-0.42c3.28,0.16,6.63,0.43,10.05,0.82c3.12,0.29,6.44,0.69,9.83,1.22c0.1,0.02,0.2,0.03,0.3,0.05
					c6.92,1.1,13.78,2.64,20.41,4.57c3.28,0.97,6.44,2.06,9.56,3.19c0.22-0.48,0.47-0.95,0.78-1.39
					c9.05-12.9,10.24-30.24,3.12-45.26c-6.94-14.29-21.19-25.92-40.07-32.7c-17.41-6.23-49.3-2.52-71.87,3.61
					c-1.34,1.54-2.7,3.05-4,4.63c-2.2,2.93-5.02,4.89-7.4,7.48l-3.66,3.73c-1.16,1.32-2.4,2.53-3.83,3.52
					c-5.46,4.23-10.41,9.16-16.38,12.67C1757.25,1099.87,1754.75,1102.38,1751.6,1103.84z" />
                    <path d="M1568.5,1760.31c-2.42-5.12-4.5-10.48-6.19-16.06c-1.52-4.99-2.55-10.01-3.37-15.03c-12.51,3.51-25.2,4.19-37.31,2.26
					c-30.51-4.85-57.39-25.72-68.81-56.21c-21.19,8.55-38.56,24.1-49.44,44.57c-12.29,23.1-14.87,49.66-7.26,74.77
					c14.85,49,64.59,77.94,113.57,67.73C1500.4,1818.58,1525.52,1774.22,1568.5,1760.31z" />
                    <path
                        d="M1090.84,1722.3c-43.07,6.28-86.78,7.12-129.94,2.88c-0.54,5.78-0.99,11.68-1.37,16.65c-0.55,7.31-1.04,13.62-1.6,17.85
					c-1.57,11.93-1.43,23.44,0.41,34.21c1.85,10.85,5.27,20.4,9.9,27.64c4.82,7.75,10.81,13.86,17.86,18.26
					c3.09,1.86,6.84,3.95,10.35,4.74c3.97,0.92,8.07,1.31,12.23,1.17c0.62-0.02,1.23,0.02,1.82,0.12c1.08-3.86,2.33-7.71,3.79-11.51
					c2.61-6.81,5.77-13.38,9.39-19.53c4.01-6.86,7.89-12.63,11.86-17.58c8.86-11.22,19.09-20.29,30.34-26.91
					c8.88-5.93,18.59-10.1,28.71-12.46c-0.08-0.71-0.23-1.4-0.3-2.12l-1.01-9.32C1092.38,1738.2,1091.54,1730.13,1090.84,1722.3z" />
                    <path d="M911.12,2009.63c-2.16-7.02-3.31-14.21-3.41-21.51c-30.85-5.67-59.08-23.26-76.68-48.32
					c-11.2-16.78-17.3-35.45-18.13-54.62c-0.94,0.04-1.89-0.03-2.84-0.31c-11.18-3.16-20.44-4.36-29.17-3.76
					c-8.59,0.42-17.79,2.51-28.29,6.38c-18.34,7.19-32.51,20.38-39.72,37.1c-5.41,12.54-6.08,26.2-2.23,39.61
					c27.77,10.02,56.05,18.59,84.73,25.47C833.48,1998.97,872.18,2005.63,911.12,2009.63z" />
                    <path d="M1935.66,1649.04c-2.43-5.16-4.62-10.46-6.3-16.02c-1.53-5.04-2.58-10.13-3.41-15.24c-12.33,3.6-25.01,4.48-37.34,2.51
					c-9.32-1.48-18.43-4.53-27-9.12c-19.1-10.21-33.45-26.89-41.1-47.35c-21.47,8.5-39.08,24.13-50.07,44.79
					c-12.3,23.11-14.87,49.66-7.26,74.77c7.61,25.11,24.49,45.77,47.55,58.16c20.46,11.01,43.6,14.29,66.02,9.59
					c-4.34-20.33-1.48-41.31,8.37-59.83C1895.91,1670.98,1913.84,1656.06,1935.66,1649.04z" />
                    <path d="M1156.49,1998.26c4.8-0.94,9.61-1.86,14.4-2.88l23.09-4.93l22.76-6.26c14.86-4.16,31.47-8.66,42.76-12.46l74.84-23.73
					l3.59-1.14c-2.32-3.69-4.41-7.55-6.18-11.59c-14.56,3.27-29.2,3.64-43.25,1.4c-31.58-5.03-60.18-23.06-78.34-49.99
					c-0.85,0.6-1.79,1.08-2.85,1.36c-9.44,2.52-18.29,6.82-26.28,12.77c-8.16,5.44-14.95,12-20.57,19.78
					c-11.77,16.42-16.73,35.31-13.95,53.18C1147.91,1982.81,1151.34,1991.06,1156.49,1998.26z" />
                    <path d="M1861,1303.89c-2.44-0.34-4.88-0.54-7.36-0.71c-2.89-0.3-5.43-0.47-7.97-0.54c-5.11-0.13-10.18,0.14-15.05,0.8
					c-9.39,1.63-20.39,3.54-30.15,8.06c-1,0.47-2.05,0.7-3.09,0.78c0.28,4.66,0.25,9.3-0.18,13.92
					c-1.51,16.07-7.18,31.71-16.42,45.26c-4.88,6.87-10.63,13.28-17.18,19.21c-3.31,2.98-6.82,5.85-10.44,8.53
					c-4.12,2.99-8.35,5.27-12.09,7.29c-8.33,4.39-17.24,8.1-26.55,11.06c-7.6,1.92-15.13,3.29-22.7,4.18
					c-0.82,6.47-2.54,12.78-5.2,18.87c2.85-0.15,5.7-0.28,8.55-0.47c9.54-0.69,19.13-1.05,28.61-2.25c18.93-2.76,38-5.12,56.53-10.2
					c9.28-2.42,18.72-4.3,27.8-7.42c9.12-2.99,18.23-6.06,27.3-9.23c9.16-2.94,17.78-7.28,26.64-11.02
					c8.73-4.05,17.74-7.51,26.08-12.34c8.47-4.58,16.92-9.22,25.29-13.97c1.87-1.01,3.69-2.1,5.49-3.21
					c2.77-15-0.11-28.91-8.56-40.13C1899.78,1316.27,1882.4,1306.85,1861,1303.89z" />
                    <path d="M1811.25,1044.11c16.33-2.75,35.95-4.32,52.05-1.38c7.98-15.92,22.2-29.98,43.26-42.78
					c13.28-7.68,25.13-13.02,37.47-16.91c3.26-1.02,6.49-1.87,9.71-2.67c-0.08-0.5-0.14-1.01-0.13-1.54
					c0.27-15.83-8.4-30.98-22.63-39.55c-13.99-8.25-31.86-10.09-51.63-5.25c-7.92,1.9-33.29,17.7-42.98,29.54
					c-0.98,18.83-5,37.24-11.96,54.42C1820.8,1026.98,1816.39,1035.67,1811.25,1044.11z" />
                    <path
                        d="M1956.69,1260.07c1.67-6.94,2.64-14.19,2.79-21.16c0.08-3.44-0.04-6.85-0.35-10.12c-0.37-3.1-0.97-6.44-1.76-9.7
					c-1.54-6.32-3.83-12.37-6.81-17.97c-5.8-10.93-14.47-20.49-25.78-28.4c-10.16-7.11-22.26-12.76-35.94-16.78
					c-5.89-1.72-11.99-3.08-18.15-4.06c-0.09-0.01-0.18-0.03-0.27-0.04c-3.01-0.47-5.97-0.82-8.89-1.1
					c-3.19-0.36-6.15-0.6-9.07-0.74c-5.78-0.29-11.26-0.16-16.3,0.37c-6.21,0.32-11.04,0.95-15.26,1.97
					c-5.54,1.61-11.34,3.37-16.44,5.95c11.84,18.14,16.88,37.43,14.53,56.21c-2.87,21.95-16.93,40.81-36.8,49.84
					c2.82,4.94,5.5,10.08,7.77,15.66c1.93,4.8,3.44,9.6,4.64,14.39c11.42-4.96,23.45-7.14,33.23-8.83
					c6.16-0.85,12.22-1.17,18.32-1.01c3.01,0.09,6.01,0.28,9.02,0.6c2.56,0.16,5.44,0.41,8.32,0.81
					c23.57,3.41,43.89,13.63,57.54,29.02c12.54-11.15,21.34-22.01,26.69-33.02C1951.71,1274.33,1954.69,1267.04,1956.69,1260.07z" />
                    <path d="M1355.89,1941.17l128.13-40.62l36.17-11.31c-1.81-3.05-3.47-6.23-4.93-9.55c-14.58,3.29-29.25,3.68-43.33,1.44
					c-31.36-4.99-59.78-22.83-77.93-49.5c-0.68,0.44-1.41,0.82-2.22,1.07c-17.83,5.4-32.49,17.46-41.26,33.96
					c-8.79,16.51-10.63,35.48-5.19,53.42C1347.67,1927.78,1351.29,1934.85,1355.89,1941.17z" />
                    <path d="M1264,1713.56c-2.56-9.34-5.38-20.78-7.75-33.07l-2.74,0.79l-75.42,21.8c-13.65,4.16-22.46,5.94-32.85,8.62l-15.17,3.87
					l-15.4,2.74c-1.97,0.38-3.95,0.7-5.92,1.06c0.79,9.06,1.74,17.76,2.54,25.03l1.02,9.43c2.55,24.5,11.91,44.82,26.37,57.22
					c6.95,6.01,14.81,10.1,23.38,12.18c8.55,1.36,17.75,0.45,26.63-2.63c0.52-0.18,1.04-0.29,1.57-0.37
					c0.21-18.51,4.84-36.84,13.86-53.66C1217.29,1741.97,1238.38,1723.46,1264,1713.56z" />
                    <path d="M1324.7,449.54c-17.21,6.73-42.15,20.29-62.74,46.58c-8.38,10.92-13.85,23.42-15.76,36.09
					c-2.06,12.5-0.61,26.69,4.06,40.07c8.57,24.6,27.11,46.14,50.37,59.16c10.44-18.42,27.14-32.63,47.79-40.35
					c2.67-1.02,5.43-1.92,8.22-2.69c2.82-0.75,5.78-1.07,8.38-1.36l1.61-0.18c3.33-0.34,6.51-0.55,9.67-0.62
					c0.87-0.02,1.78-0.03,2.68-0.03c1.9,0,3.55,0,5.14-0.24c7.91-0.78,15.18-0.61,19.96-0.34c3.76,0.18,7.53,0.7,11.29,1.36
					c0.59-6.18,1.51-12.39,3.1-18.59c1.32-5.15,3.08-10.11,5.02-14.97c-3.47-1.2-6.89-2.53-10.16-4.13
					c-4.99-2.52-9.11-5.34-13.43-9.2c-4.44-3.92-7.38-9.23-9.77-13.89c-0.7-1.36-1.26-2.7-1.82-4.09c-0.32-0.79-0.64-1.61-1.07-2.49
					c-1.24-2.53-2.38-5.2-3.38-7.86c-7.56-20.5-7.08-42.89,1.06-63.69C1365.4,441.28,1345.18,441.76,1324.7,449.54z" />
                    <path d="M1576.14,1223.3c-0.53-1.25-1.14-2.77-1.76-4.3c-1.56-3.86-3.17-7.84-4.88-11.07c-2.18-4.35-4.64-8.27-7.81-12.5
					l-0.41-0.59c-3.1-4.9-6.93-8.71-11.54-12.38c-5.15,7.61-10.92,14.22-17.27,19.68c-6.55,5.55-16.79,13.17-30.58,15.53
					c-10.59,2.28-21.36,2.55-31.85,0.88c-11.46-1.82-22.55-6.02-32.7-12.37c-2.36,5.16-4.98,10.25-8.17,15.15
					c-2.83,4.35-5.99,8.38-9.31,12.26c18.88,12.81,31.87,32.07,36.59,54.51c1.66,9.97,3.64,21.9,2.76,33.66
					c-0.74,10.65-3.38,20.47-7.67,29.37c11.54,5.81,25.07,9.76,41.42,11.88c6.92,0.49,14.85,0.2,23.11-0.92
					c7.76-1.19,14.27-2.56,20.38-5.3c13.08-5.54,23.65-13.33,31.6-23.23c7.61-9.56,13.1-21.72,15.84-35.16
					c2.49-12.19,2.83-25.08,1.05-39.4C1583.41,1246.48,1580.37,1234.14,1576.14,1223.3z" />
                    <path d="M1412.27,1366.61c0.45-0.23,0.96-0.42,1.38-0.66c8.5-4.56,15.05-10.88,19.72-18.93c4.48-7.7,7.09-16.64,7.78-26.56
					c0.72-9.66-0.99-19.95-2.49-29.03c-3.77-17.9-14.49-33.57-30.11-43.72c-0.54-0.35-1.03-0.75-1.46-1.19
					c-14.53,12.43-31.97,21.15-51.15,25.27c-14.24,3.05-28.61,3.42-42.55,1.2c-13.12-2.09-25.78-6.59-37.63-13.17
					c-2.3,2.65-4.76,5.11-7.32,7.43c32.42,22.46,64.81,44.96,97.07,67.66l32.45,22.7L1412.27,1366.61z" />
                    <path d="M1341.45,1113.12c-10.8,2.32-21.71,2.6-32.29,0.91c-11.47-1.82-22.52-6.01-32.63-12.35
					c-2.36,5.16-4.99,10.26-8.17,15.16c-2.83,4.35-6,8.38-9.31,12.27c37.83,25.69,49.33,76.21,27.06,115.87
					c20.2,10.71,43.31,13.99,66.01,9.12c25.59-5.5,47.55-20.63,61.86-42.64c27.89-42.94,17.96-99.62-21.4-130.49
					C1379.84,1097.39,1361.96,1108.72,1341.45,1113.12z" />
                    <path
                        d="M1443.68,1189.23c0.76,0.24,1.51,0.55,2.21,1c15.64,10.16,34.32,13.59,52.56,9.67c7.64-1.32,14.39-4.86,22.27-11.54
					c6.6-5.67,12.57-13.03,17.69-21.85c4.64-7.99,8.52-16.95,11.52-26.62c0.31-1.17,0.72-2.64,1.14-4.08
					c2.08-7.21,3.45-11.98,1.6-18.5l-0.15-0.62c-1.18-5.63-3.09-10.96-5.52-16.01l-21.08-12.63
					c-38.47-23.01-76.77-46.28-115.05-69.58c1.52,16.26-1.45,32.47-8.69,47.14C1440.63,1094.72,1456.27,1144.22,1443.68,1189.23z" />
                    <path
                        d="M1253.05,1256.61c5.7-4.57,10.81-10.06,15-16.52c21.07-32.44,11.96-75.89-20.31-96.85c-0.54-0.35-1.03-0.75-1.46-1.19
					c-14.52,12.43-31.97,21.15-51.15,25.27c-14.23,3.05-28.62,3.41-42.55,1.2c-13.12-2.09-25.79-6.59-37.63-13.16
					c-1.45,1.67-2.96,3.25-4.52,4.78c42.29,27.97,84.17,56.57,126.14,85.05C1242.06,1248.99,1247.55,1252.8,1253.05,1256.61z" />
                    <path
                        d="M1590,1333.07c-2.37,4.16-4.91,8.16-7.81,11.8c-9.87,12.28-22.81,21.87-38.5,28.51c-8.27,3.72-16.94,5.39-25.04,6.63
					c-9.66,1.31-18.86,1.64-27.5,1.01c-2.21-0.29-4.38-0.59-6.5-0.93c-16.76-2.66-30.82-7.26-43.08-13.73
					c-3.56,4.12-7.59,7.76-12.05,10.94l4.51,2.74l12.63,6.51l25.48,12.7c8.75,3.68,17.59,7.2,26.46,10.65l13.34,5.11l13.65,4.19
					l27.47,7.97l28.02,5.8c4.69,0.91,9.37,1.87,14.08,2.67l14.21,1.74c9.48,1.1,18.99,2.15,28.52,2.86l27.88,0.69
					c0.95-1.38,1.91-2.76,2.7-4.2c4.41-8.26,6.4-17.21,5.86-26.52c-0.51-8.89-3.24-17.72-8.12-26.25
					c-4.7-8.42-11.08-16.32-18.5-22.93c-3.68-3.3-7.63-6.29-11.74-8.91c-4.68-3.32-9.07-5.97-13.42-8.13
					c-4.55-2.26-9.28-4.12-14.05-5.52l-0.59-0.2c-5.19-1.92-10.12-3.28-15.09-4.17C1591.78,1333.93,1590.85,1333.55,1590,1333.07z" />
                    <path d="M1254.99,340.87l1.35,0.65c6.09,3.01,11.51,6.15,16.25,9.4c1.82,1.22,3.51,2.52,5.22,3.83l1.5,1.16
					c2.3,1.68,4.59,3.53,6.67,5.41c1.09,0.99,2.11,1.98,3.09,2.98l0.52,0.55c0.15,0.16,0.31,0.33,0.45,0.48l0.29,0.21
					c2.1,1.52,3.87,3.06,5.4,4.7c0.9,1.07,1.44,1.68,1.98,2.28l0.2,0.23c6.08-2.76,12.01-5.23,17.46-7.47l13.35-5.52
					c3.66-1.55,7.37-3.25,10.5-4.73c4.22-1.95,7.72-3.88,10.53-5.57c-10.58-11.78-18.37-25.5-22.88-39.08
					c-7.5-4.28-18.22-9.46-30.63-12.57c-14.62-3.66-27.8-2.5-38.06,3.37c-4.47,2.52-8.16,6.3-11.68,11.94
					c-0.7,1.2-1.37,2.37-1.71,3.27c-0.41,1.18-0.82,2.6-1.16,4.05c-0.67,2.94-1.03,6.03-1.05,9.17c-0.01,1.84-0.58,3.54-1.54,4.96
					C1245.85,336.56,1250.34,338.65,1254.99,340.87z" />
                    <path d="M1095.39,537.92c4.84,5.91,10,10.97,15.12,16.38l7.78,7.89l7.77,7.01c5.16,4.51,10.59,9.48,15.69,13.43l15.41,11.73
					c2.64,2.02,5.13,3.75,7.54,5.35l7.37,4.94c10.12,6.92,19.16,12.12,28.53,17.68c4.81,2.92,8.92,5,13.39,7.47l13.15,7.08
					c6.77,3.49,30.29,11.5,63.56,22.07c0.67-3.67,1.49-7.33,2.65-10.91c-27.76-15.06-49.99-40.55-60.17-69.79
					c-5.65-16.19-7.38-33.55-4.85-48.86c0.34-2.28,0.81-4.55,1.34-6.82c-1.08-0.31-2.12-0.81-3.06-1.54
					c-17.83-13.83-37.83-24.35-59.44-31.25c-5.38-1.73-11.12-2.93-15.52-3.78c-5.04-0.98-10.03-1.55-14.84-1.66
					c-10.37-0.22-19.5,1.65-27.11,5.58c-8.1,4.18-14.26,10.66-18.31,19.27c-2.16,4.6-3.74,9.81-4.69,15.5
					c-0.11,0.65-0.17,1.35-0.25,2.03C1089.4,530.46,1092.34,534.24,1095.39,537.92z" />
                    <path d="M227.81,1423.3c0.98-0.52,1.89-1.11,2.9-1.6c11.26-5.36,24.12-8.37,38.23-8.98c4.12-0.17,8.29-0.07,12.47,0.17
					c-0.78-7.97-1.09-15.95-0.66-23.8c0.13-4.35,0.76-9.14,1.87-14.03c0.9-4.26,2.01-8.56,3.27-12.66
					c5.86-18.54,13.85-32.86,24.43-43.82c13.78-14.94,30.81-25.04,49.66-29.77c-0.26-1.03-0.37-2.12-0.24-3.24
					c1.08-9.62-0.11-19.48-3.52-29.3c-3.29-10.75-7.79-19.74-13.89-27.8c-6.65-8.91-14.8-16.68-24.27-23.14
					c-9.87-6.86-20.61-11.71-31.99-14.47c-12.01-2.93-24.03-3.33-35.75-1.28c-7.17,1.32-14.06,3.74-20.65,6.98
					c-5.34,28.51-8.85,57.35-10.24,86.28C217.11,1329.82,220.03,1376.98,227.81,1423.3z" />
                    <path d="M586.2,925.03c-6.87,7.49-15.37,14.39-25.06,20.52c5.51,4.97,10.62,10.6,15.23,16.95c3.09,4.3,5.8,8.68,8.23,13.07
					c31.9-21.99,62.43-13.85,79.1,0.15c11.28,9.46,19.55,21.96,25.93,35.74c1.53-0.87,2.97-1.76,4.32-2.73
					c3.09-2.14,5.95-5.03,8.96-8.09l1.81-1.83c7.26-7.35,13.33-18.15,17.79-26.73c11.94-25.13,16.38-50.19,13.07-74.19
					c-3.76-27.25-19.24-49.68-42.48-61.54c-11.51-6.33-25.27-9.7-42.25-10.47c-7.26-0.34-14.77,0.69-23.81,2.34
					c-4.06,0.8-8.24,1.81-12.29,2.99c-1.43,0.44-2.93,1.02-4.42,1.6c7.02,19,6,39.93-3.3,61.26
					C602.3,905.33,595.27,915.79,586.2,925.03z" />
                    <path d="M1797.91,700.64c-1.44,5.94-2.51,12.12-3.11,18.55c-1.25,12.73-1,25.4,0.71,36.68c2.67,20.11,7.92,34.79,16.24,45.6
					c16.03-14.98,34.53-23.54,52.83-24.12c21.7-1.21,42.74,9.36,55.28,27.52c4.52-3.75,9.15-7.25,13.97-10.24
					c5.4-3.35,10.95-6,16.56-8.28c-13.61-19.38-21.64-41.59-23.13-64.6c-1.08-25.01,5.69-46.05,19.49-61.56
					c-1.67-1.43-3.36-2.83-5.05-4.17c-3.13-2.26-6.81-4.65-10.93-7.1c-3.74-2.21-7.6-4.28-11.45-6.12
					c-3.1-1.36-6.82-2.75-11.47-4.25c-17.61-6.01-33.96-5.46-44.61-3.94c-13.58,2.47-25.63,7.75-35.47,15.63
					c-9.76,7.92-17.6,18.3-23.26,30.82c-1.75,3.89-3.21,7.99-4.52,12.2c0.3,1.77,0.09,3.65-0.74,5.39
					C1798.91,699.39,1798.43,700.04,1797.91,700.64z" />
                    <path d="M1963.59,668.68c-13.07,12.27-19.21,29.79-18.25,52.08c1.35,20.75,9,41.02,22.12,58.41c0.39,0.52,0.55,1.12,0.81,1.69
					c3.32-0.66,6.66-1.22,10.02-1.52c16-1.29,32.31,1.6,47.28,8.35c30.93,13.69,55.91,44.73,66.02,81.59
					c19.31-3.08,38.8,0.14,56.91,8.93c-9.8-65.25-32.58-128.3-67.03-184.9c-10.5-17.25-22.09-33.89-34.67-49.8
					c-0.55,0.17-1.08,0.3-1.63,0.48c-18.35,5.52-32.8,8.48-44.41,10.87C1982.84,658.54,1972.03,660.76,1963.59,668.68z" />
                    <path
                        d="M450.7,1104.32c4.52,2.34,8.84,5.04,13.06,7.9c10.6-19.26,29.94-32.02,52.3-34.17l0.7-0.04
					c22.61-0.45,40.08,6.79,55.19,20.06c9.1-13.68,13.31-31.08,12.77-53.03c-0.6-19.01-5.08-47-23.01-71.94
					c-8.05-11.08-17.76-19.67-28.83-25.5c-11.38-6.07-24-9.12-37.54-9.12c-27.12-0.02-55.64,13.8-75.77,36.41
					c14.32,13.98,23.82,32.88,27.01,54.51c3.31,23.36-1.06,46.85-12.56,68.14C439.66,1099.35,445.25,1101.51,450.7,1104.32z" />
                    <path d="M1081.38,857.63c3.9,2.85,8.23,6.13,10.96,9.05c5.15,5.08,10.05,10.98,14.29,17.28c8.37,12.42,14.19,26.2,17.29,40.97
					c3.91,18.62,3.19,37.49-1.84,55.33c0.76,0.24,1.5,0.55,2.2,1.01c32.29,20.96,75.67,11.63,96.75-20.79
					c11.05-17.01,13.72-37.03,9.19-55.26c-34.62-22.27-69.16-44.65-103.56-67.25l-32.81-21.56c-1.16-0.8-3.17-2.04-5-3.18
					l-5.55-3.44l-5-3.07c4.52,16,3.75,32.59-2.22,47.43C1077.85,855.31,1079.69,856.41,1081.38,857.63z" />
                    <path d="M2120.29,1629.26c-0.54,0.09-1.09,0.16-1.66,0.15c-4.39-0.04-8.77,0.38-13.01,1.26c-3.89,0.84-7.89,2.75-11.27,4.51
					c-3.56,1.9-6.98,4.23-10.05,6.88c-1.53,1.31-2.98,2.71-4.34,4.17c-1.13,1.33-2.41,3.01-3.59,4.74c-2.37,3.47-4.39,7.21-6,11.12
					c-1.31,3.24-1.78,6.81-2.29,11.51c-0.7,7.92,0.02,17.11,2.24,27.92c0.36,1.76,3.77,6.54,10.38,10.2
					c5.8,3.19,11.7,4.17,15.81,2.62c2.36-0.88,4.86-0.71,6.99,0.27c18.48-0.87,37,0.02,55.24,2.69c11.44,1.71,22.75,4.16,33.85,7.26
					c-0.26-1.55-0.46-3.09-0.52-4.61l-1.12-0.38c-3.16-1.16-6.06-2.47-8.85-3.97c-4.09-2.05-7.84-4.83-11.47-7.53
					c-1.1-0.81-2.19-1.63-3.28-2.4c-5.06-3.89-9.73-8.33-14.13-13.38c-2.13-2.46-4.2-5.04-6.2-7.75c-1.77-2.17-3.75-4.85-5.65-7.65
					c-7.62-11.21-13.95-24.34-18.34-37.95C2121.97,1635.7,2121.1,1632.48,2120.29,1629.26z" />
                    <path
                        d="M2261.38,1565.45c-7-16.4-10.62-33.95-10.81-51.35c-1.7-0.36-3.43-0.69-5.22-0.92c-4.3-0.65-8.49-1.1-12.59-1.35
					c-7.99-0.38-15.88-0.59-23.14,0.86c-7.84,1.36-15.14,3.34-21.93,5.92c-3.39,1.29-6.63,2.72-9.64,4.26
					c-2.79,1.56-5.79,3.44-8.6,5.42c-11.15,7.86-19.8,17.51-25.71,28.69c-5.83,11.19-9.01,23.85-9.4,37.57
					c-0.36,12.61,1.62,25.65,5.92,38.78c3.87,12.04,9.44,23.56,16.09,33.37c1.61,2.36,3.27,4.62,5,6.76
					c1.95,2.63,3.72,4.85,5.53,6.94c3.61,4.16,7.39,7.76,11.23,10.71c0.91,0.64,2.1,1.52,3.3,2.41c3.14,2.33,6.12,4.54,9.03,6
					c1.91,1.02,3.72,1.83,5.52,2.54c7.53-20.13,20.5-36.59,36.49-45.96c19.82-11.14,43.12-12.06,62.88-2.82
					c1.88-5.56,4.02-10.97,6.57-16.09c2.33-4.65,5.03-8.96,7.89-13.1C2288.31,1610.93,2271.57,1590.68,2261.38,1565.45z" />
                    <path d="M1403.13,603.71c-4.23-0.24-10.51-0.39-16.82,0.22c-2.43,0.37-5.02,0.38-7.3,0.38l-2.27,0.02
					c-2.71,0.06-5.41,0.24-8.13,0.52l-1.6,0.18c-2.08,0.23-4.23,0.47-5.64,0.84c-2.16,0.6-4.39,1.33-6.58,2.16
					c-18.61,6.96-33.22,20.32-41.19,37.65c-2.79,6.02-4.59,12.33-5.51,18.75c51.68,16.18,120.78,36.9,187.4,56.61
					c0.09-3.16,0.31-6.32,0.74-9.5c-46.92-15.61-78.42-58.4-81.28-106.18C1411.04,604.5,1407.08,603.9,1403.13,603.71z" />
                    <path
                        d="M2054.35,1030.15c-6.91-11.2-16.71-20.36-28.47-26.68c-10.89-5.86-23.42-8.96-37.22-9.24
					c-12.4-0.24-25.59,1.81-39.19,6.08c-11.04,3.48-21.74,8.31-33.68,15.21c-17.01,10.34-28.3,20.98-34.95,32.86
					c19.71,8.7,34.8,22.29,42.86,38.9c9.64,20.33,8.16,43.74-3.57,61.75c5.29,2.7,10.36,5.61,15.02,8.87
					c4.25,2.98,8.09,6.23,11.73,9.6c14.42-20.33,32.35-35.45,53.33-44.9c21.8-10.14,44.2-12.65,63.81-7.33
					c1.6-5.77,3.02-11.7,3.98-17.87c0.88-8.06,1.04-16.64,0.42-25.11C2066.67,1056.02,2061.92,1041.75,2054.35,1030.15z" />
                    <path d="M1015.06,903.56c-10.1,2.71-20.74,3.86-34.58,3.73c-4.24-0.12-8.55-0.53-13.03-1.24c-6.65-1.06-13.71-2.81-21.5-5.28
					c-0.98,5.54-2.25,11.08-4.13,16.61c-1.65,4.85-3.74,9.58-6.01,14.26c9.45,3.45,18.21,9.42,26,18.02
					c6.87,7.22,12.15,17.29,15.13,28.94c4.87,18.3,1.64,39.74-8.71,59.6c0.38,0.14,0.76,0.3,1.15,0.44
					c1.56,0.56,3.28,1.17,5.45,2.11c5.68,2.22,11.9,3.96,18.2,5.07c12.42,2.23,25.07,1.95,37.51-0.72
					c25.59-5.49,47.55-20.63,61.85-42.63c14.3-22,19.22-48.23,13.83-73.84c-2.62-12.46-7.52-24.09-14.58-34.57
					c-3.58-5.31-7.7-10.28-12.25-14.78c-2.17-2.32-7.03-5.86-8.63-7.02c-1.12-0.81-2.36-1.53-3.51-2.32
					C1055.58,885.72,1037.72,897.28,1015.06,903.56z" />
                    <path d="M926.82,947.47c-2.19,3.28-4.53,6.5-7.05,9.66c-9.02,11.36-19.4,21.44-30.02,29.15c-2.63,1.93-5.29,3.66-7.99,5.39
					c-2.63,1.76-5.42,3.48-8.21,5.04c-5.77,3.24-11.57,5.79-17.21,7.59c-6.07,2.29-11.89,3.82-17.36,4.53
					c-4.14,0.41-8.12,0.66-12.09,0.74c0,0.02-0.01,0.03-0.01,0.05c14.42,1.72,28.79,4.5,42.91,8.28l12.39,4.15l6.23,2l6.03,2.54
					l12.14,4.94l11.75,5.83c4.02,1.75,7.78,4,11.54,6.26l5.69,3.28l2.86,1.62c0.28,0.15,0.55,0.31,0.82,0.46
					c3.92-4.63,7.47-9.52,10.52-14.65c10.21-17.15,13.73-35.79,9.64-51.14c-2.24-8.75-5.99-16.06-10.88-21.2
					c-6.37-7.02-13.19-11.67-20.41-13.95C927.66,947.88,927.24,947.68,926.82,947.47z" />
                    <path d="M914.84,837.2c-2.24-3.2-4.32-5.87-6.35-8.15c-2.24-2.4-4.81-4.88-7.53-7.24c-5.52-4.8-11.74-9.21-18.49-13.1
					c-6.2-3.3-13.48-6.23-21.96-8.82c-5.06-1.64-10.56-2.8-16.64-3.56c-1.87,6.94-4.47,13.78-7.99,20.44
					c-5.48,10.31-12.76,19.93-22.27,29.4c-18.17,17.34-40.22,28.49-63.95,32.45c1.66,5.42,3.06,10.98,3.86,16.8
					c0.7,5.05,0.99,10.2,1.07,15.38c21.94-2.21,43.45,6.4,57.87,23.45c6.78,7.61,12.13,17.7,15.33,29l0.15,0.64
					c1.78,8.64,2.05,17.99,1.34,27.57c2.44-0.13,4.97-0.36,7.63-0.63c3.8-0.5,8.3-1.7,13.48-3.64c4.92-1.58,9.59-3.65,14.31-6.3
					c2.4-1.33,4.77-2.8,7.14-4.38c2.53-1.62,4.88-3.15,7.24-4.87c9.33-6.78,18.49-15.68,26.51-25.78
					c8.56-10.75,14.97-22.29,19.07-34.32c4.42-12.94,5.87-25.9,4.32-38.53C927.46,860.67,922.7,848.62,914.84,837.2z" />
                    <path
                        d="M367.1,1118.47c-11.6,5.81-22.98,14.98-32.62,26.39c-5.35,5.99-9.17,13.05-12.21,19.18c-2.88,5.86-5.26,12.1-7.33,18.47
					c4.6,2.35,9.11,4.92,13.42,7.91c11.05,7.55,20.65,16.71,28.47,27.18c7.36,9.74,12.81,20.57,16.61,33.05
					c4.04,11.59,5.5,23.61,4.38,35.48c5.58-0.39,11.22-0.49,16.99,0.01c5.15,0.45,10.32,1.35,15.48,2.45
					c1.56-10.68,5.18-20.98,10.66-29.87c6.03-9.01,14.37-16.71,24.33-22.54c9.47-5.49,19.92-8.87,31.1-10.04
					c9.42-0.92,19.11-0.27,28.94,1.77c0.27-1.99,0.5-4,0.56-6.03c0.12-3.74-0.26-7.66-0.66-11.81l-0.39-4.23
					c-1.17-9.54-4.67-20.07-10.36-30.96c-11.2-23.36-30.13-43.1-52.07-54.47C418.4,1108.01,391.68,1107.31,367.1,1118.47z" />
                    <path d="M1094.77,369.49c3.57-6.83,8.69-13.63,15.11-20.08c5.72-5.75,12.07-10.7,18.88-14.7c3.48-2.05,7.13-3.83,10.88-5.4
					c-0.54-1.17-0.86-2.45-0.86-3.82c0.01-5.25-0.46-10.52-1.4-15.67c-0.47-2.57-1.04-5.1-1.72-7.59c-0.32-1.27-0.56-2.35-0.81-3.42
					c-0.34-1.52-0.68-3.04-1.12-4.54c-2.88-10.85-8.62-21.31-12.7-28.26c-11.13-18.65-26.61-31.29-43.55-35.53
					c-18.19-4.5-36.83,2.28-52.59,19.22c-5.98,6.38-11.22,14.8-15.93,25.52c-0.12,9.06-0.24,18.14,0.25,27.16
					c0.88,11.86,1.93,23.74,3.13,35.58c1.4,11.79,3.91,23.39,6.05,35.06c2.03,11.73,5.16,23.08,8.32,34.45
					c1.4,5.51,3.56,11.75,5.61,17.8c2.17,6.14,3.97,11.95,6.59,18.3c2.66,6.38,5.41,12.74,8.23,19.05l2.13,4.73l2.53,4.89l5.17,9.73
					c4.42,8.58,9.85,17.18,15.54,25.63c0.76-2.1,1.57-4.16,2.49-6.12c4.21-8.94,10.1-16.25,17.48-21.93
					c-1.18-2.82-2.38-5.87-3.68-9.38c-2.26-6.02-3.9-11.67-5-17.21c-1.16-5.34-2.11-10.89-2.79-16.32c-0.46-3.02-0.5-5.66-0.51-8.29
					c-0.02-2.36,0.03-4.75,0.12-7.11c0.18-4.69,0.59-9.35,1.2-13.89c0.72-4.82,1.92-9.42,3.12-13.7
					C1087.45,384.93,1090.76,376.83,1094.77,369.49z" />
                    <path
                        d="M715.82,1013.35c-3.47,3.53-7.07,7.18-11.39,10.17c-1.15,0.83-2.37,1.65-3.62,2.43c1.88-0.78,3.77-1.54,5.64-2.35
					l11.85-3.87l5.91-2.03l6.1-1.45l12.18-3.08c8.32-1.17,16.52-3.36,25.02-3.83c13.59-1.68,27.38-2.02,41.19-1.31
					c2.75-14.21,3.94-28.38,1.59-40.17c-2.47-8.55-6.43-16.06-11.49-21.74c-11.03-13.03-27.37-19.41-43.89-17.23
					c-0.4,0.05-0.78,0.04-1.17,0.04c-1.96,16.99-6.95,34.29-15,51.23c-5.21,10-12.17,22.32-21.15,31.42L715.82,1013.35z" />
                    <path d="M476.42,1774.87c-3.57-6.44-6.67-14.51-9.15-23.84c-2.13-8.12-3.41-16.26-3.79-24.21c-0.4-7.97,0.11-15.86,1.48-23.46
					c1.48-7.55,3.94-15.09,7.35-22.51c1.67-3.61,3.57-7.11,5.64-10.5c-0.85-0.51-1.65-1.15-2.31-1.96
					c-3.22-3.9-6.82-7.51-10.68-10.71c-4.24-3.71-7.93-6.85-11.9-9.4c-8.09-5.32-17.06-9.2-26.76-11.61
					c-20.03-5.44-39.4-3.59-54.76,5.21c-16.24,9.28-26.57,26.49-28.35,47.22c-0.17,2.74-0.16,5.59-0.01,8.49
					c3.6,5.04,7.17,10.09,10.91,15.02c10.8,13.14,21.7,26.21,32.75,39.12c11.81,12.19,23.75,24.27,35.77,36.24
					c11.97,11.12,23.91,21.12,35.95,31.64c10.91,9.05,22.07,17.78,33.41,26.28c0.59-12.97,4.33-25.24,11.03-36.15
					C492.56,1799.77,483.4,1787.93,476.42,1774.87z" />
                    <path d="M238.51,1438.05c-2.6,1.24-4.99,2.64-7.27,4.13c2.87,14.47,6.13,28.86,9.98,43.1c17.67,65.78,45.83,128.79,83.25,185.74
					c0.93,1.33,1.86,2.67,2.79,4c4.09-17.44,13.22-32.29,26.38-42.72c-3.45-6.68-5.98-12.64-7.8-18.37
					c-2.58-8.93-4.31-17.74-5.18-26.42c-0.89-8.76-0.93-17.3-0.12-25.36c1.28-8.75,3.3-16.79,6.08-24.35
					c5.59-15.27,14.12-28.38,25.34-38.96c2.98-2.77,6.14-5.33,9.43-7.71c-0.32-0.44-0.65-0.88-0.89-1.39
					c-1.9-3.95-4.36-7.88-7.32-11.67c-2.17-2.83-4.88-5.68-7.5-8.43l-2.94-3.12c-6.71-6.8-15.34-13.15-25.46-18.66
					c-5.03-2.74-10.36-5.22-15.85-7.39c-5.7-2.34-11.08-4.16-16.56-5.61c-11.91-3.18-23.72-4.54-35.13-4.06
					C258.05,1431.32,247.55,1433.75,238.51,1438.05z" />
                    <path d="M290.35,1173.27c2.65,0.64,5.24,1.46,7.83,2.29c2.24-6.71,4.77-13.3,7.84-19.54c3.61-7.25,8.16-15.62,14.78-23.03
					c11.05-13.08,24.41-23.81,38.5-30.85c18.6-8.45,38.09-11.31,57.12-8.73c0.14-1.11,0.48-2.22,1.06-3.26
					c10.12-18.17,13.99-38.27,11.17-58.14c-2.19-14.91-9-35.8-28.93-50.37c-17.11-12.53-40.14-15.89-63.17-9.25
					c-8.9,2.53-17.79,6.61-26.15,11.96c-1.3,2.11-2.69,4.17-3.96,6.29c-9.37,15.57-16.63,30.63-24.23,45.91
					c-3.71,7.67-7.67,15.22-10.96,23.07l-9.42,23.8c-11.61,29.82-20.85,60.58-27.81,91.85c4.29-1.43,8.63-2.67,13.1-3.49
					C261.41,1169.25,275.91,1169.79,290.35,1173.27z" />
                    <path d="M2027.05,1479.83c1.54,11.41,5.83,22.61,12.76,33.29c2.61,4.15,5.87,8.09,9.01,11.91l1.96,2.38
					c3.43,4.26,7.18,8.12,11.17,11.52c1.95,1.65,4,3.24,6.11,4.7c2.46,1.88,4.66,3.41,6.86,4.8c4.43,2.79,9.04,5.08,13.71,6.81
					c4.46,1.73,9.22,2.7,14.27,3.72l0.91,0.18c5.15,1.08,10.33,1.57,15.51,1.43c1.07-0.03,2.09,0.16,3.05,0.48
					c1.53-4.28,3.25-8.47,5.34-12.49c7.29-13.77,17.81-25.56,31.31-35.07c3.33-2.35,6.88-4.58,10.52-6.6
					c3.88-1.98,7.72-3.68,11.71-5.2c7.87-3,16.31-5.29,25.06-6.8c9.04-1.81,18.15-1.58,27.44-1.14c4.77,0.3,9.49,0.8,14.16,1.51
					c1.27,0.16,2.55,0.45,3.82,0.68c0.62-4.7,1.4-9.37,2.55-13.95c1.83-7.28,4.34-14.14,7.46-20.55
					c-77.01-17.47-157.19-19.71-234.63-6.67C2026.21,1463.92,2026.17,1473.3,2027.05,1479.83z" />
                    <path
                        d="M1791.93,498.76c-16.94,9.74-28.99,25.61-33.91,44.65c-4.88,18.88-2,38.53,8.1,55.34c1.83,3.22,4.81,7.03,9.23,11.84
					c3.57,3.83,7.48,7.4,11.58,10.54c3.7,2.98,8.4,6.62,13.43,9.56c4.35,2.53,9.03,4.79,14.13,7.19c0.65-0.56,1.24-1.2,1.9-1.75
					c12.26-9.82,27.03-16.34,43.95-19.41c18.43-2.62,36.7-1,53.19,4.62c5.12,1.66,9.4,3.26,13.33,4.99
					c4.59,2.19,8.92,4.5,13.12,6.99c4.61,2.73,8.74,5.43,12.62,8.24c2.85,2.24,5.51,4.51,8.1,6.81
					c10.04-5.84,21.68-8.23,36.39-11.25c10.01-2.05,22.34-4.65,37.11-8.84c-7.73-9.01-15.75-17.78-24.14-26.21
					c-27.46-27.49-58.33-51.74-91.52-71.93c-31.66-19.3-65.4-34.83-99.98-46.57C1807.93,489.62,1797.91,495.32,1791.93,498.76z" />
                    <path d="M405.31,963.73c23.76-27.26,57.01-43.38,90.04-43.36c16.52-0.01,32,3.77,46.01,11.22c1.39,0.73,2.68,1.65,4.03,2.45
					c0.19-0.12,0.35-0.27,0.55-0.39c10.74-6.09,19.88-13.17,27.14-21.08c7.66-7.83,13.43-16.39,17.32-25.65
					c6.14-14.08,10.97-35.12-0.68-56c-5.1-9.07-12.76-16.76-22.76-22.84c-10.94-6.58-24.09-11.14-36.97-12.84
					c-7.9-1.09-16.21-1.44-24.66-1.17c-4.32,2.43-8.6,4.92-12.77,7.53c-15.09,9.42-29.9,19.36-44.09,30.17
					c-28.41,21.55-54.97,45.75-78.79,72.45c-14.59,16.31-27.99,33.63-40.5,51.54c0.8-0.25,1.59-0.59,2.39-0.82
					C357.84,947.38,384.32,950.68,405.31,963.73z" />
                    <path d="M601.95,816.63c2.49-1.01,5.02-1.96,7.63-2.77c4.71-1.36,9.4-2.5,14.11-3.42c10.38-1.89,19.05-3.05,28-2.64
					c19.81,0.91,36.15,4.99,49.91,12.57c18.05,9.21,32.27,23.7,41.44,41.58c0.87-0.47,1.82-0.84,2.86-1
					c20.44-3.25,39.49-12.83,55.08-27.73c8.07-8.04,14.3-16.24,18.91-24.91c3.61-6.83,6.1-13.86,7.56-20.98
					c-0.04-0.44-0.08-0.88-0.06-1.33c0.07-1.1,0.36-2.12,0.77-3.07c0.21-1.48,0.47-2.95,0.58-4.44c0.81-10.51-0.85-20.57-4.93-29.9
					c-4.21-9.68-10.8-18.15-19.09-24.52c-0.99-0.8-2.1-1.47-3.13-2.22c-18.62-0.81-37.31-0.72-56,0.58
					c-17.69,0.57-35.27,3.33-52.89,5.52c-8.76,1.47-17.49,3.27-26.23,4.98l-13.09,2.66l-12.94,3.42
					c-8.61,2.34-17.26,4.62-25.82,7.18l-25.37,8.81c-8.51,2.82-16.75,6.35-24.97,9.94c-8.2,3.62-16.54,7-24.57,10.98
					c-1.32,0.68-2.64,1.37-3.96,2.05c14.22,2.33,28.47,7.37,40.6,14.66C587.02,799.09,595.52,807.21,601.95,816.63z" />
                    <path d="M846.83,778.47c6.94,0.9,13.29,2.25,19.13,4.16c9.44,2.88,17.77,6.25,25.29,10.24c8.03,4.63,15.19,9.72,21.59,15.28
					c3.19,2.78,6.23,5.71,9.02,8.7c2.64,2.96,5.17,6.19,7.85,10.03c9.57,13.89,15.36,28.65,17.25,43.92c0.49,4,0.71,8.02,0.71,12.06
					c0.96-0.01,1.94,0.09,2.91,0.4c11.78,3.79,21.39,5.68,30.25,5.93c11.95,0.1,21.1-0.85,29.47-3.1
					c21.22-5.88,36.58-16.54,45.58-31.66c9.76-16.39,9.83-36.41,0.19-54.9c-1.58-3.08-3.35-6.02-5.22-8.86
					c-0.44-0.23-0.87-0.49-1.31-0.71l-23.19-12.06c-7.89-3.69-15.91-7.13-23.89-10.64l-12.01-5.19l-12.29-4.52
					c-8.21-2.96-16.42-5.95-24.68-8.74c-16.81-4.74-33.42-10.33-50.62-13.68c-8.56-1.8-17.08-3.9-25.73-5.32l-26.03-3.89
					c-7.04-0.85-14.11-1.56-21.19-2.2c4.2,5.37,7.77,11.29,10.52,17.61C845.5,752.97,847.62,765.47,846.83,778.47z" />
                    <path d="M1105.77,463.85c0.95,2.57,1.82,4.82,2.68,6.93c8.64-3.21,18.26-4.77,28.75-4.55c5.86,0.13,11.89,0.79,17.92,2
					c4.86,0.94,11.28,2.28,17.57,4.3c22.78,7.27,43.92,18.27,62.9,32.62c3.18-7.02,7.2-13.81,12.07-20.14
					c2.03-2.59,4.13-4.93,6.23-7.31c-6.48-6.37-11.32-14.23-13.67-22.79c-1.63-4.66-1.81-10.27-1.73-15.54
					c0.05-4.94,1.1-10.32,3.13-15.93c1.99-5.46,4.28-9.96,7.21-14.2c3.04-4.39,6.62-8.55,10.67-12.39
					c5.89-5.6,13.05-10.73,21.6-15.61c-0.32-0.26-0.66-0.54-1.06-0.83c-1.58-1-2.74-2.24-3.62-3.17c-1.02-1.06-1.78-1.79-2.57-2.51
					c-1.6-1.44-3.39-2.89-5.33-4.3l-1.75-1.34c-1.4-1.08-2.79-2.16-4.33-3.2c-4.1-2.81-8.79-5.52-13.99-8.09l-1.24-0.59
					c-5.12-2.44-9.96-4.75-15.14-6.82c-5.8-2.31-11.81-4.31-17.85-5.93c-13.91-3.72-27.23-5.26-39.57-4.63
					c-13.73,0.72-26.08,4.25-36.71,10.49c-5.47,3.22-10.59,7.21-15.22,11.86c-5.14,5.16-9.17,10.49-11.98,15.85
					c-3.46,6.32-6.25,13.19-8.39,20.56c-0.94,3.37-2.02,7.38-2.6,11.29c-0.52,3.85-0.88,7.95-1.04,12.05
					c-0.08,2.07-0.12,4.19-0.1,6.32c0.01,2.12,0.03,3.87,0.34,5.9c0.65,5.13,1.51,10.14,2.59,15.12
					C1102.46,453.99,1103.84,458.71,1105.77,463.85z" />
                    <path
                        d="M462.87,1412.33c-3.02,2.58-5.87,5.58-8.34,8.85c-4.97,6.54-8.57,14.35-10.42,22.56c-0.98,3.82-1.01,7.56-0.75,12.09
					c0.28,4.25,1.06,8.63,2.29,12.92c0.11,0.37,0.14,0.74,0.2,1.12c3.93-0.15,7.9-0.14,11.91,0.04c14.29,0.55,28.76,3.22,41.75,7.71
					c6.52,2.27,12.62,4.96,18.15,8.03c5.86,2.83,11.52,6.22,16.37,9.84c5.3,3.93,9.98,8.33,13.9,13.07
					c2.03,2.25,4.31,4.91,6.53,7.86c7.65-3.38,15.65-5.96,23.76-7.7c-0.31-0.44-0.6-0.89-0.9-1.33
					c-19.36-30.99-34.04-64.86-43.25-100.21c-0.84-3.22-1.58-6.47-2.32-9.72c-0.82-0.14-1.63-0.34-2.45-0.45
					c-9.56-1.47-19.14-1.59-28.47-0.34c-9.87,1.32-18.92,4.14-26.91,8.37C469.88,1407.17,466.17,1409.62,462.87,1412.33z" />
                    <path d="M570.17,1769.66c10.17-1.12,20.69-0.43,34.03,2.34c11.5,2.44,22.19,6.89,31.91,13.16c2.24-5.14,4.76-10.21,7.86-15.1
					c2.77-4.37,5.93-8.51,9.27-12.54c-8.92-6.25-16.61-14.22-22.24-23.22c-5.38-8.48-8.9-19.45-10.16-31.69
					c-1.93-20.36,4.16-40.9,17.05-58.54c-6.68-4.48-13.9-7.78-21.58-9.81c-5.75-1.44-10.75-2.52-16.17-3.07
					c-5.39-0.53-11.12-0.61-17.03-0.22c-5.94,0.4-12.07,1.27-18.21,2.59c-6.85,1.4-12.59,2.97-18.15,4.96
					c-12.84,4.59-24.33,11.07-34.16,19.28c-10.45,8.72-18.47,19.02-23.83,30.62c-2.8,6.1-4.83,12.25-6,18.28
					c-1.11,6.13-1.52,12.63-1.2,19.22c0.33,6.71,1.41,13.6,3.22,20.48c2.06,7.76,4.67,14.62,7.54,19.8
					c5.86,10.95,13.37,20.87,21.91,29.28C528.59,1781.01,548.15,1771.9,570.17,1769.66z" />
                    <path d="M528.73,1625.01c0.28,0.33,0.48,0.69,0.7,1.05c3.64-1.67,7.37-3.21,11.22-4.58c6.29-2.26,13.01-4.11,20.54-5.64
					c6.9-1.49,13.9-2.48,20.72-2.94c6.91-0.46,13.65-0.36,20.03,0.27c6.5,0.64,12.27,1.89,18.88,3.55
					c10.45,2.76,20.13,7.38,29,13.65c7.76-7.52,16.55-13.83,25.96-18.71c-8.21-6.36-16.24-12.92-24.09-19.68
					c-7.47-6.93-15.56-13.79-22.65-20.58c-6.25-6.77-12.59-13.42-19.05-19.96c-5.65-7.24-11.36-14.39-17.22-21.43
					c-1.15-1.61-2.24-3.27-3.36-4.91c-12.84,1.72-25.55,5.96-36.93,12.47c-17.15,9.8-29.14,24.19-33.77,40.52
					c-1.99,7.74-2.25,15.99-0.72,24.32c0.67,3.4,1.7,7.93,3.58,11.83C523.47,1617.9,525.92,1621.6,528.73,1625.01z" />
                    <path d="M646.33,1724.66c4.61,7.37,10.95,13.88,18.37,18.85c0.37,0.25,0.68,0.54,1,0.83c13.56-12.39,29.81-22.19,47.3-28.19
					c6.64-2.26,13.33-3.9,19.91-4.88c6.87-1.29,13.68-1.97,19.91-1.97c9.82-0.12,19.76,1.62,31.18,5.29
					c5.9-10.36,13.4-19.61,22.05-27.3c-40.3-16.45-78.42-37.92-113.63-63.25c-14.06,5.5-27.27,15.02-37.11,26.99
					c-12.24,14.87-18.07,32.56-16.44,49.81C639.83,1710.22,642.42,1718.49,646.33,1724.66z" />
                    <path
                        d="M384.32,1512.07c-9.11,8.59-16.1,19.36-20.72,31.97c-2.34,6.4-4.06,13.24-5.11,20.34c-0.63,6.43-0.59,13.75,0.18,21.33
					c0.77,7.59,2.28,15.32,4.49,22.96c1.36,4.26,3.36,8.94,6.01,14.18c18.29-8.28,39.92-9.65,61.69-3.69
					c11.5,2.84,22.36,7.55,32.07,13.94c4.92,3.15,9.33,6.91,13.77,10.79c4.26,3.52,8.35,7.64,12.1,12.07
					c3.74-4.23,7.71-8.32,12.2-12.06c3.94-3.29,8.17-6.24,12.53-9.04c-3.09-3.95-5.87-8.12-8.14-12.54
					c-2.87-5.98-4.26-11.95-5.16-16.51c-2.03-11.05-1.68-21.92,1.03-32.43c5.48-19.34,18.57-36.18,37.07-48.24
					c-1.37-1.68-2.77-3.28-4.1-4.76c-3.23-3.9-6.85-7.29-11-10.37c-3.95-2.95-8.62-5.74-13.9-8.3c-5.06-2.79-10.21-5.06-15.74-6.98
					c-11.33-3.91-23.99-6.25-36.59-6.74c-13.72-0.63-26.79,0.98-38.91,4.8C405.02,1496.92,393.65,1503.4,384.32,1512.07z" />
                    <path d="M478.18,1244.15c-8.55,0.91-16.59,3.49-23.81,7.68c-7.57,4.43-13.88,10.21-18.21,16.68c-4.23,6.88-7.14,15.28-8.22,24
					c-0.04,0.35-0.15,0.67-0.23,1c17,6.08,33.17,15.49,46.77,27.54c8.4,7.85,18.69,18.16,25.33,29.78c1.6,2.74,3.07,5.6,4.3,8.44
					l0.74,1.8c0.81,1.99,1.63,3.99,2.52,6.01c1.44,3.58,2.56,7.15,3.42,10.73c5.69-0.15,11.42,0.2,17.16,0.86
					c-4.55-26.41-6.11-53.32-4.53-79.99c0.79-13.22,2.32-26.37,4.55-39.39c-6.12-5.91-13.55-10.59-21.57-12.61
					C496.64,1244.11,487.19,1243.27,478.18,1244.15z" />
                    <path d="M323.49,1331c-8.85,9.18-15.26,20.83-20.31,36.8c-1.09,3.52-2.05,7.29-2.87,11.14c-0.87,3.88-1.36,7.52-1.47,10.93
					c-0.45,8.3-0.16,16.57,0.86,24.77c0.02,0.17,0,0.34,0.01,0.51c3.26,0.63,6.52,1.37,9.78,2.23c6.15,1.64,12.43,3.76,18.66,6.31
					c6.07,2.39,12.09,5.19,17.76,8.28c11.69,6.37,21.75,13.78,29.89,22.05l2.97,3.15c2.95,3.09,6,6.3,8.71,9.83
					c3.71,4.75,6.86,9.79,9.32,14.92c0.01,0.03,0.02,0.06,0.03,0.09c5.04-2.47,10.25-4.72,15.8-6.47
					c4.93-1.55,10.02-2.68,15.18-3.61c-1.3-4.94-2.2-9.96-2.53-14.97c-0.31-5.48-0.37-11.31,1.22-17.47
					c2.35-10.44,7.07-20.65,13.59-29.24c3.26-4.3,7.02-8.28,11.16-11.8c4.36-3.58,9.09-6.71,14.18-9.4
					c8.24-4.37,17.36-7.43,27.11-9.29c-0.54-1.9-1.11-3.8-1.86-5.66c-0.84-1.91-1.72-4.05-2.58-6.16l-0.65-1.59
					c-0.89-2.01-2.02-4.24-3.31-6.45c-5.48-9.59-14.55-18.64-21.84-25.45c-19.21-17.01-44.47-28.06-69.08-30.26
					C366,1301.78,341.9,1311.06,323.49,1331z" />
                    <path
                        d="M587.01,1114.25c3.02-4.06,6.13-8.06,9.41-11.91c10.49-12.83,22.32-24.56,35.14-35.23
					c6.39-5.36,13.17-10.26,20.05-15.04c6.94-4.88,14.15-8.55,21.14-12.98c2.26-1.3,4.61-2.42,6.97-3.55
					c-6.18-18.25-14.66-35.06-27.63-45.95c-4.35-3.65-27.59-20.69-58.72,1.88c-0.33,0.24-0.71,0.29-1.05,0.48
					c7.6,19.42,10.06,38.24,10.51,52.58c0.67,27.18-5.48,49.57-18.1,66.78C585.5,1112.24,586.24,1113.29,587.01,1114.25z" />
                    <path d="M1900.08,824.76c2.16-2.64,4.4-5.12,6.67-7.55c-0.31-0.35-0.7-0.58-0.97-0.99c-8.87-13.69-24.34-21.64-40.43-20.79
					c-15.84,0.51-32.12,9.02-46.05,23.98l-1.01,1.08l-0.13,0.07c-0.08,0.09-0.14,0.2-0.22,0.29c-1.11,1.17-2.46,1.97-3.9,2.41
					c-5.15,4.29-9.2,11.85-11.31,21.45c-0.22,1.01-0.41,2.07-0.59,3.13c2.65,3.67,5.21,7.42,7.59,11.3
					c14.4,23.5,23.45,50.94,26.11,78.57c0.05,0.44,0.05,0.89,0.09,1.33c9.76-7.89,20.94-14.56,29.23-18.61
					c-2.43-18.04,1.73-38.07,12.65-60.96C1883.97,846.82,1891.46,835.16,1900.08,824.76z" />
                    <path d="M2052.77,884.48c6.9-4.58,13.98-8.04,21.3-10.68c-8.73-31.61-29.84-58.04-55.88-69.57
					c-12.24-5.53-25.48-7.87-38.37-6.84c-12.46,1.11-24.74,5.36-36.44,12.62c-10.6,6.59-20.47,15.43-29.33,26.27
					c-7.74,9.33-14.43,19.77-19.92,31.07c-8.66,18.15-12.34,33.78-11.28,47.51c21.42-3.71,41.15-0.73,57.41,8.87
					c19.21,11.57,31.01,31.88,31.36,53.4c5.89-0.7,11.72-1.11,17.4-1c5.29,0.11,10.41,0.6,15.39,1.4
					c-0.09-25.09,7.11-47.66,21.52-67.09C2033.09,900.33,2042.16,891.55,2052.77,884.48z" />
                    <path
                        d="M1735.78,1122.01c-2.76-1.29-5.24-2.21-7.35-2.72c-1.64-0.28-4.41-0.76-6.52-0.75c-5.81,2.35-11.74,4.44-17.87,5.95
					c-14.55,4.58-29.7,6.71-45,7.16c1.72,2.54,3.67,5.92,5.58,9.74c3.88,7.82,7.42,17.1,10.22,26.86
					c2.15,7.33,3.67,14.68,4.66,21.94c2.74,0.2,5.5,0.58,8.26,1.2c5.45,0.65,10.81,2.08,16.48,4.35c1.68,0.64,3.53,1.5,5.37,2.36
					l2.37,1.09c2.5,1.07,5.23,2.41,8.01,3.92c5.2,2.84,10.6,6.36,16.04,10.47c9.24,6.65,23.55,18.62,36.23,35.56
					c0.41-0.26,0.83-0.51,1.29-0.7c14.85-6.21,25.38-20.11,27.49-36.26c2.02-16.17-3.31-33.25-15.42-49.35
					c-14.39-19.1-31.59-30.74-40.57-35.98c-1.52-0.88-3.02-1.66-4.52-2.41C1738.71,1123.45,1737.22,1122.69,1735.78,1122.01z" />
                    <path
                        d="M1085.47,1037.56c-14.52,12.43-31.96,21.15-51.15,25.27c-14.11,3.03-28.41,3.42-42.54,1.17
					c-0.64-0.1-1.27-0.21-1.91-0.32c-7.48-1.32-14.86-3.4-21.94-6.16c-2.03-0.87-3.4-1.36-4.65-1.81c-1.38-0.49-2.65-0.95-4-1.54
					c-0.27-0.11-0.53-0.25-0.79-0.37c-1.24,1.68-2.65,3.26-3.97,4.89l20.28,13.03c40.18,25.82,80.19,51.91,120.09,78.17
					c4.63-4.11,8.84-8.83,12.38-14.28c21.07-32.44,11.96-75.89-20.31-96.85C1086.4,1038.4,1085.91,1038,1085.47,1037.56z" />
                    <path
                        d="M1125.32,1140.49c20.21,10.72,43.33,13.99,66.01,9.11c25.59-5.49,47.56-20.63,61.85-42.63
					c27.9-42.93,17.97-99.6-21.38-130.47c-20.17,25.92-52.56,37.9-83.53,32.98c-11.26-1.79-22.3-5.88-32.52-12.27
					c-2.38,5.18-5.03,10.28-8.19,15.15c-2.83,4.35-5.99,8.39-9.3,12.27C1136.08,1050.31,1147.58,1100.84,1125.32,1140.49z" />
                    <path d="M1561.46,561.03c-11.32-19.22-15.02-41.47-10.83-63.23c-23.46-3.91-47.32,0.49-68.06,12.82
					c-23.28,13.85-39.82,35.97-46.57,62.27c-13.19,51.44,15.44,103.85,64.44,121.01c7-20.31,20.74-37.34,39.37-48.42
					c18.69-11.12,40.24-15.04,61.4-11.36c0.59-6.39,1.56-12.77,3.19-19.1c1.31-5.07,3.03-9.91,4.93-14.65
					C1589.23,593.36,1572.41,579.63,1561.46,561.03z" />
                    <path d="M1617.31,705.59c-9.74-16.46-15.19-34.57-16.39-53.06c-17.77-3.77-36.09-0.86-51.86,8.51
					c-16.65,9.91-28.48,25.72-33.31,44.54c-1.78,6.96-2.46,13.94-2.21,20.78c69.1,20.39,133.42,39.09,170.13,49.73
					c-0.3-5.63-0.11-11.29,0.66-16.93C1656.1,749.93,1632.47,731.22,1617.31,705.59z" />
                    <path d="M523.96,1222.42c-0.1,3.76-0.58,7.48-1.25,11.15c3.25,1.62,6.35,3.54,9.3,5.66c3.64-15.89,8.28-31.56,14-46.86
					l4.74-12.82c1.66-4.25,3.98-8.22,5.81-12.4c3.89-8.23,7.55-16.98,11.57-23.93c2.58-4.53,5.31-8.97,8.11-13.35
					c-18.39-24.77-35.64-34.14-58.79-33.76c-16.75,1.72-31.19,11.49-38.66,26.18c-0.19,0.38-0.44,0.71-0.67,1.05
					c13.4,12.03,24.56,26.81,32.52,43.41c6.57,12.55,10.72,25.17,12.19,37.23l0.4,4.33
					C523.66,1212.86,524.12,1217.57,523.96,1222.42z" />
                    <path d="M2097.22,1178.15c-3.93-22.09-15.9-37.82-33.67-44.18c-16.32-5.89-36.14-4.06-55.78,5.08
					c-18.44,8.3-34.15,21.7-46.8,39.86c-0.56,0.79-1.24,1.43-1.97,1.99c2.79,3.76,5.39,7.63,7.56,11.72
					c3.68,6.93,6.51,14.39,8.41,22.18c0.96,3.98,1.69,8.03,2.17,12.05c0.4,4.18,0.55,8.3,0.45,12.46
					c-0.19,8.25-1.33,16.79-3.39,25.37c-2.44,8.52-5.86,16.94-10.29,25.42c-6.56,13.51-17.32,26.7-32.65,40.01
					c4.25,8.6,6.45,17.97,6.71,27.77c16.16-10.38,30.85-22.69,45.62-34.89c3.77-3,7.32-6.24,10.73-9.61l10.36-10.01
					c6.74-6.78,13.99-13.29,20.13-20.47c6.29-7.1,12.56-14.21,18.69-21.46l17.44-22.76c13.43-18.61,25.63-38.28,36.46-58.75
					C2097.32,1179.35,2097.31,1178.73,2097.22,1178.15z" />
                    <path d="M1776.78,717.46c0.55-5.84,1.51-11.47,2.68-17c-1.45-0.32-2.86-0.65-4.47-0.86c-5.04-0.64-9.12-0.73-12.86-0.29
					c-4.08,0.6-8.28,1.68-12.27,3.19c-3.65,1.35-6.77,3.08-10.72,5.27l-1.51,0.84c-16.83,9.81-28.89,25.69-33.77,44.58
					c-2.42,9.39-2.92,18.96-1.58,28.29c8.4,2.43,13.12,3.79,13.12,3.79c13.4,4.45,25.87,10.14,37.41,17.1
					c11.54,6.96,22.17,15.19,31.77,24.67c1.21,1.21,2.35,2.5,3.53,3.76c2.55-6.76,5.93-12.64,10.09-17.28
					c-10.77-13.48-17.43-31.23-20.61-55.1C1775.67,745.85,1775.39,731.63,1776.78,717.46z" />
                    <path
                        d="M1782.91,483.06c2.91-1.67,6.83-3.91,11.26-6.44l-53.75-14.48c-7.91-2.13-15.84-4.04-23.86-5.73
					c-16.93-3.57-50.67-10.78-90.73-19.73c-24.15,18.45-51.2,39.31-56.53,60.09c-4.83,18.81-2.07,38.37,7.76,55.07
					c9.13,15.5,23.38,26.74,40.37,32.11c25.43-42.71,75.97-66.44,127.11-56.94C1752.1,508.53,1765.36,493.16,1782.91,483.06z" />
                    <path d="M2093.21,887.3c-10.82,1.85-20.76,5.86-30.43,12.27c-8.74,5.81-16.21,13.05-22.2,21.5
					c-12.42,16.76-18.47,36.18-18.1,57.89c0.02,1.07-0.18,2.1-0.51,3.06c4.31,1.54,8.49,3.36,12.48,5.51
					c14.56,7.83,26.72,19.21,35.18,32.93c9.01,13.81,14.72,30.76,16.83,50.18c0.72,9.89,0.54,19.58-0.51,29.13
					c-1.23,7.98-3.05,15.39-5.14,22.55c12.57,7.44,22.33,19,28.5,33.51c2.76-5.99,5.44-12.01,7.96-18.11
					c14.82-35.87,25.32-73.57,31.21-111.84c5.89-38.29,7.01-77.11,3.81-115.42c-0.27-3.29-0.63-6.58-0.97-9.87
					C2133.31,888.6,2113.04,883.83,2093.21,887.3z" />
                    <path d="M1775.74,635.36c-4.72-3.62-9.38-7.86-13.68-12.48c-5.47-5.95-9.14-10.7-11.57-15c-11.54-19.19-15.38-41.58-11.14-63.47
					c-52.54-8.84-104.06,23.39-117.43,75.15c-6.76,26.16-2.86,53.44,10.97,76.81c12.64,21.37,32.22,37.14,55.65,45.16
					c7.09-20.45,21.1-37.57,40.14-48.67l1.66-0.92c4.26-2.37,8.29-4.6,13.16-6.4c5.13-1.95,10.63-3.36,16.25-4.18
					c5.48-0.65,10.95-0.55,17.47,0.27c2.48,0.3,4.81,0.76,7.07,1.29c1.14-3.18,2.35-6.3,3.72-9.32c3.65-8.08,8.14-15.38,13.3-21.97
					c-3.44-1.68-6.78-3.39-10.05-5.29C1785.17,642.79,1779.77,638.61,1775.74,635.36z" />
                    <path d="M1403.45,450.44c-8.19,17.82-9.14,37.37-2.63,55.03c0.79,2.11,1.7,4.22,2.7,6.28c0.63,1.3,1.1,2.46,1.56,3.6
					c0.35,0.86,0.68,1.7,1.13,2.57c1.2,2.33,3.41,6.62,5.7,8.65c3.17,2.83,6,4.77,9.47,6.52c3.18,1.55,6.61,2.81,10.11,3.9
					c10.1-17.09,24.33-31.5,41.83-41.92c25.24-15.02,54.44-19.99,82.99-14.55c9.07-17.96,27.21-33.8,46.59-48.98
					c-48.56-11-102.99-23.88-147.37-35.77C1437.79,407.66,1411.01,434.18,1403.45,450.44z" />
                    <path d="M1335.9,217.42c-6.46-3.15-13.29-5.43-20.33-6.34c-2.72-0.43-5.27-0.6-8.14-0.54c-2.71,0.05-5.36,0.28-7.92,0.7
					c-1.14,0.19-2.34,0.4-3.42,0.7c-0.65,0.22-1.64,0.6-2.6,1.01c-1.81,0.78-3.44,1.7-4.83,2.73c-0.42,0.31-0.92,0.41-1.37,0.64
					c3.32,7.95,5.92,16.21,8.16,25.89l0.14,0.76c1.55,10.82,2.66,21.42-0.81,32.04c-0.47,1.44-1.34,2.58-2.36,3.57
					c2.72,0.42,5.46,0.94,8.25,1.64c7.99,2.01,15.32,4.75,21.78,7.63c-0.26-4.58-0.13-9.01,0.53-13.14
					c0.27-14.53,2.6-29.07,7.09-43.17C1331.69,226.72,1333.71,222.04,1335.9,217.42z" />
                    <path
                        d="M1363.44,362.24c-3.64,2.4-9.15,5.76-16.52,9.17c-3.25,1.54-7.21,3.35-11.19,5.04l-13.45,5.57
					c-8.3,3.42-17.72,7.29-26.79,11.96c-9.84,5.07-17.53,10.31-23.52,16.01c-3.15,2.99-5.92,6.21-8.25,9.57
					c-2.02,2.93-3.63,6.13-5.07,10.07c-1.31,3.62-2.02,7.08-2.05,9.99c-0.05,3.66,0.02,7.37,0.92,9.96
					c1.64,5.92,4.79,11.06,8.99,15.2c18.32-16.69,37.36-26.52,51.71-32.13c25.62-9.73,50.87-9.87,75.25-0.62
					c9.49-13.77,25.17-30.18,40.02-42.34c-30.62-8.69-53.91-16.53-62.82-22.28C1368.14,365.79,1365.76,364.05,1363.44,362.24z" />
                    <path
                        d="M690.7,1956.68c-1.17-9.74-0.52-19.5,2.05-28.96c-12.36-6.08-24.18-14.94-35.22-26.52
					c-5.98-6.38-11.02-12.91-15.05-19.49c-4.17-7.35-7.45-14.73-9.9-22.2c-6.24-19.01-6.97-38.58-2.4-57.27
					c-0.97-0.25-1.91-0.62-2.79-1.21c-8.14-5.44-17.19-9.24-26.89-11.3c-11.38-2.35-20.14-2.97-28.43-2.06
					c-20.09,2.04-37.47,10.92-49.05,24.99c-10.67,12.97-14.87,29.47-12.21,46.96C566.65,1899.11,627.17,1931.86,690.7,1956.68z" />
                    <path d="M2117.85,1578.63c-4.52,0.02-9.06-0.27-13.53-0.98c-1.41-0.22-2.81-0.48-4.2-0.78l-0.82-0.17
					c-5.57-1.13-11.33-2.3-17.1-4.54c-5.7-2.11-11.45-4.96-16.93-8.42c-2.68-1.69-5.34-3.54-7.91-5.52
					c-2.23-1.54-4.76-3.48-7.15-5.52c-4.86-4.14-9.4-8.81-13.5-13.91l-1.85-2.26c-3.35-4.05-7.14-8.66-10.3-13.68
					c-3.84-5.92-6.94-12.04-9.44-18.27c-2.06,0.57-4.19,1.33-6.39,2.15l-3.16,1.15c-6.65,2.45-10.68,4.32-11.64,4.9
					c-6.08,3.32-11.42,6.95-16.35,11.06c-9.71,8.11-17.66,17.92-23.62,29.14c-12.29,23.1-14.88,49.66-7.27,74.77
					c7.61,25.11,24.5,45.77,47.55,58.16c11.2,6.03,23.3,9.78,35.82,11.12c6.38,0.69,12.83,0.74,19.19,0.15
					c0.69-0.09,1.3-0.16,1.88-0.22c-1.39-9.2-1.76-17.52-1.08-25.19c0.64-5.93,1.34-11.13,3.53-16.57
					c2.11-5.13,4.74-9.99,7.84-14.52c1.6-2.34,3.29-4.54,5.03-6.56c2.07-2.23,4.02-4.11,6.04-5.84c4.07-3.5,8.59-6.58,13.41-9.16
					c4.55-2.36,9.92-4.9,15.97-6.2c5.02-1.04,10.11-1.51,15.22-1.57c-0.65-5.83-1.02-11.62-0.86-17.35
					C2116.39,1588.75,2117.01,1583.65,2117.85,1578.63z" />
                    <path d="M1538.03,1883.65l164.83-51.57c-1.47-2.59-2.85-5.24-4.07-8.01c-14.58,3.29-29.25,3.68-43.33,1.44
					c-31.35-4.99-59.77-22.84-77.93-49.5c-0.68,0.44-1.41,0.82-2.23,1.07c-36.83,11.16-57.67,50.36-46.45,87.38
					C1530.97,1871.47,1534.1,1877.9,1538.03,1883.65z" />
                    <path d="M1011.64,237.35c17.27-18.58,38.62-27.74,59.74-26.11c6.17-19.02,14.57-34.69,25.03-46.65
					c3.3-3.77,9.02-4.13,12.77-0.84c3.76,3.29,4.14,9.01,0.84,12.77c-8.55,9.76-15.55,22.76-20.88,38.67
					c18.7,6.82,35.36,21.32,47.45,41.59c4.65,7.91,11.18,19.84,14.56,32.62c0.48,1.64,0.92,3.51,1.34,5.4
					c0.22,0.95,0.43,1.9,0.67,2.86c0.77,2.81,1.47,5.88,2.02,8.93c1.05,5.76,1.56,11.65,1.63,17.52c5.45-1.16,11.03-2.05,16.88-2.35
					c14.24-0.74,29.45,1.02,45.2,5.22c1.89,0.51,3.76,1.12,5.64,1.69c0.09-4.18,0.56-8.32,1.48-12.31c0.5-2.14,1.09-4.21,1.8-6.21
					c0.94-2.49,2.07-4.44,3.08-6.17c5.45-8.77,11.2-14.52,18.37-18.56c8.75-5.01,18.8-7.61,29.67-7.8c-1.7-2.28-2.32-5.31-1.37-8.22
					c2.23-6.83,1.41-14.68,0.15-23.47c-2.58-11.11-5.67-20.05-9.98-28.96c-1.25-2.62-2.62-5.25-4.1-7.91
					c-1.45-2.81-2.85-5.39-4.38-7.98c-3.16-5.37-6.68-10.62-10.48-15.61c-8.71-11.41-18.29-20.78-28.46-27.82
					c-4.11-2.84-5.14-8.49-2.29-12.6c2.85-4.11,8.49-5.14,12.6-2.29c11.74,8.13,22.69,18.8,32.56,31.74
					c4.24,5.57,8.17,11.43,11.67,17.39c1.63,2.76,3.13,5.53,4.55,8.27c2.12-1.43,4.41-2.73,6.9-3.81c1.47-0.64,3.01-1.22,4.6-1.73
					c2.03-0.57,3.85-0.92,5.64-1.22c3.46-0.57,7-0.88,10.55-0.95c4.26-0.09,8.3,0.25,12.29,0.9c8.68,1.38,17.15,4.27,25.16,8.22
					c1.99-3.15,4.09-6.23,6.29-9.24c8.83-11.93,19.08-23.03,31.44-31.17c0,0,25.67-19.01,51.38-21.6
					c90.25-0.81,170.61,57.36,253.15,78.03c57.37,14.37,57.92-38.89,23.23-45.97c-19.25-3.93-39.41-28.18-50.87-57.35
					c5.04,2.11,10.27,3.55,15.42,4.15c3.01,0.71,5.89,0.45,8.85,0.68c1.76,0.06,2.65,0.09,4.41,0.14c1.7-0.14,2.56-0.21,4.26-0.36
					c2.83-0.28,5.72-0.41,8.49-0.84c3.27-0.66,4.91-0.98,8.18-1.64c5.94-1.25,8.9-1.88,14.84-3.13c4.77-0.99,9.54-1.34,14.27-2.02
					c9.41-0.62,18.74-0.1,26.85,2.71c8.08,2.8,14.69,8.09,19.47,15.5c4.79,7.42,7.66,16.74,9.87,26.27
					c2.23,9.6,4.13,19.66,7.22,30.06c0.01,0.05,0.02,0.07,0.03,0.13c0.35,1.18,1.3,2.17,2.55,2.54c1.91,0.56,3.85-0.52,4.34-2.42
					c4.67-18.45,3.93-38.89-5.1-58.47c4.05,4.18,7.7,8.86,11.06,13.81c4.53,6.66,7.63,13.96,14.43,20.19
					c0.02,0.02,0.03,0.03,0.06,0.04c0.42,0.39,0.97,0.64,1.57,0.69c1.41,0.11,2.58-0.94,2.63-2.34c0.34-9.27-4.1-17.15-8.63-24.76
					c-4.56-7.65-10.17-14.92-16.96-21.15c-6.78-6.22-14.93-11.27-23.63-14.43c-3.72-1.35-7.59-2.23-11.45-2.85
					c-0.56-0.22-1.1-0.48-1.66-0.68c-11.82-4.3-23.71-4.87-34.95-4.31c-5.5,0.61-11.09,1.17-16.4,2.3
					c-3.17,0.71-4.76,1.07-7.94,1.78c-2.97,0.65-4.46,0.97-7.43,1.61c-2.31,0.49-3.67,0.78-5.66,1.2c-1.09,0.23-2.22,0.4-3.33,0.51
					c-5.65,0.56-5.95,0.6-8.38,0.84c-1.36-0.04-2.04-0.07-3.4-0.11c-2.22-0.19-4.59,0.12-6.72-0.44
					c-9.38-1.19-17.95-4.93-24.52-11.16c-0.06-0.1-0.11-0.2-0.16-0.31c-3.57-19.51-2.5-39.17,5.73-54.94
					c4.73-9.06,16.99-16.77,27.2-17.17c34.31-1.36,96.89-4.36,146.65-6.81c6.83,20.9,12.16,51.87,2.04,86.3
					c-0.36,1.24,1.16,2.15,1.98,1.15c8.13-9.77,26.91-38.47,20.94-88.69c13.77-0.68,25.5-1.27,34.05-1.7
					c2.6,15.93,2.77,35.02-3.33,55.52c-0.3,1.01,0.93,1.76,1.61,0.96c5.86-6.92,18.59-25.69,19.61-57.56
					c31.54-3.39,31.03-30.68,30.75-46.82c-0.44-24.68-26.6-43.23-60.68-64.68c-133.1-83.8-293.89-114.25-441.28-78.8
					c-22.75,5.48-59.5,14.05-93.59,24.99c0,0-79.9,25.82-136.25,66.35c-39.64,26.16-74.22,59.57-103.18,96.93
					c-28.9,37.46-52.26,79.25-68.39,123.91c-12.71,35.78-20.91,73.21-24.52,111.13C1011.19,237.87,1011.41,237.6,1011.64,237.35z
					 M1691.19,177.29c25.82,7.44,39.24,30.86-8.75,20.46c-42.8-9.26-91.18-37.33-139.16-76.78
					C1494.12,80.56,1438,90.17,1437.91,16.6c-0.03-28.63-2.56-33.7,11.96-40.09c20.54-9.03,29.39-2.21,43.22,4.23
					c24.86,11.59,60.49,32.85,73.96,65.29C1590.73,103.04,1628.87,159.33,1691.19,177.29z M1547.71-182.1
					c100.45-10.32,347.21,59.17,371.63,139.05c6.31,20.61-3.13,26.13-10.7,29.25c-6.6,2.73-19.23,6.94-33.32,4.01
					c-6.8-1.42-51.42,2.05-51.42,2.05c-7.06-0.89-21.93,0.03-30.76,0.72c-3.29,0.26-6.69-0.01-9.77-1.38
					c-2.44-1.08-5.19-0.91-7.37,0.45c-2.79,1.74-5.89,2.97-9.23,3.06c-2.26,0.06-3.38,0.09-5.63,0.15
					c-3.42,0.09-6.94-0.36-10.07-1.92c-2.3-1.15-4.93-1.15-7.12-0.05c-3.42,1.71-7.05,2.99-10.93,3.04
					c-2.39,0.03-3.58,0.04-5.97,0.06c-2.7,0.04-5.33-0.79-7.84-1.91c-2.32-1.04-4.94-0.92-7.06,0.27
					c-3.25,1.82-6.76,3.17-10.55,3.27c-1.85,0.05-2.77,0.07-4.62,0.12c-3.42,0.09-6.94-0.35-10.07-1.92
					c-2.29-1.15-4.93-1.15-7.11-0.05c-3.41,1.73-7.04,3.01-10.92,3.05c-2.39,0.03-3.58,0.04-5.97,0.07
					c-2.7,0.03-5.33-0.79-7.84-1.92c-2-0.89-4.2-0.93-6.13-0.17c-4.86,1.91-10.39,1.61-15.53,0.08c-0.5-0.15-0.75-0.22-1.25-0.37
					c-8.07-2.4-20.08-30.07-26.73-35.43c-6.73-5.42-32.4,16.55-37.5,16.76c-15.66,0.64-24.06-0.63-44.27-12.94
					c-12.21-5.78-17.28-13.86-33.22-30.57c-23.36-24.51-81.51-8.7-103.43,1.35c-9.07,4.17-19.17-4.24-20.98-10.12
					C1349.45-127.96,1494.67-176.64,1547.71-182.1z M1170.8,63.12c29.2-4.92,54.9,3.61,70.55,23.41c3.1,3.92,2.44,9.61-1.49,12.71
					c-2.07,1.63-4.63,2.22-7.04,1.84c-2.17-0.34-4.21-1.47-5.68-3.33c-11.6-14.67-30.54-20.64-53.35-16.78
					c-4.91,0.82-9.59-2.49-10.43-7.43C1162.54,68.63,1165.87,63.96,1170.8,63.12z M1139.01,132.28c3.83-1.66,7.75-3.09,11.65-4.25
					c4.34-1.12,8.44-1.91,12.49-2.44c8.06-1.04,16.1-1.06,23.94-0.06c5,0.35,8.46,5.17,7.83,10.13s-5.17,8.46-10.13,7.83
					c-6.31-0.81-12.8-0.78-19.32,0.05c-3.32,0.43-6.69,1.08-10.01,1.94c-2.87,0.86-6.09,2.03-9.25,3.4
					c-1.64,0.71-3.38,0.9-5.03,0.64c-2.95-0.47-5.61-2.39-6.89-5.33C1132.32,139.61,1134.42,134.28,1139.01,132.28z" />
                    <path d="M428.31,2222.53c0.01,0,0.02,0,0.04,0.01c45.94,7.31,77.82,49.33,73.57,95.19c49.88,3.38,95.16-32.07,103.17-82.62
					c8.02-50.57-24.13-98.31-72.64-110.5c-10.87,43.96-53.72,73.17-99.08,65.97l-0.01,0c-4.94-0.79-8.3-5.42-7.52-10.36
					c0.79-4.94,5.42-8.31,10.36-7.53c38.01,6.02,73.87-20.15,79.92-58.35c0.05-0.33,0.06-0.66,0.11-0.99
					c-1.33-0.16-2.66-0.33-3.99-0.49l-258.39-30.91c-86.11-10.44-172.44-19.5-259.12-26.27c-43.34-3.39-86.74-6.43-130.3-8.52
					c-21.75-1.2-43.52-2.29-65.34-3.02l-32.71-1.24l-32.78-0.82c-43.7-1.12-87.54-1.37-131.51-0.81
					c-43.98,0.65-88.07,1.9-132.51,5.48l-2.11,13.31c41.16,17.15,82.68,31.99,124.31,46.22c41.63,14.14,83.4,27.47,125.3,39.93
					l31.42,9.37l31.49,8.94c20.98,6.06,42.02,11.76,63.07,17.35c42.06,11.49,84.26,22.03,126.53,32.22
					c84.52,20.39,169.41,38.49,254.52,55.22l255.26,50.57c1.35,0.27,2.7,0.53,4.05,0.79c0-0.01,0.01-0.02,0.01-0.03
					c6.05-38.19-19.93-74.17-57.92-80.21c-0.02-0.01-0.03-0.01-0.03,0c-4.94-0.79-8.3-5.42-7.52-10.36
					C418.74,2225.11,423.37,2221.74,428.31,2222.53z M-136.56,2150.74c-18.59-2.96-31.26-20.42-28.3-39.01s20.42-31.25,39.01-28.3
					c18.58,2.96,31.25,20.42,28.29,39.01C-100.52,2141.03-117.98,2153.7-136.56,2150.74z M78.88,2185.02
					c-18.58-2.96-31.26-20.42-28.3-39.01c2.96-18.58,20.42-31.25,39.01-28.3c18.58,2.96,31.25,20.42,28.29,39.01
					S97.47,2187.97,78.88,2185.02z M294.32,2219.3c-18.58-2.96-31.25-20.42-28.29-39.01c2.96-18.58,20.42-31.25,39-28.3
					c18.58,2.96,31.26,20.42,28.3,39.01C330.37,2209.58,312.91,2222.25,294.32,2219.3z" />
                </g>
            </g>
        </g>
    </g>
</svg>